<svg xmlns="http://www.w3.org/2000/svg" xmlns:xlink="http://www.w3.org/1999/xlink" width="64.191" height="64.191" viewBox="0 0 64.191 64.191">
  <defs>
    <clipPath id="clip-path">
      <path id="path654" d="M0-682.665H64.191v64.191H0Z" transform="translate(0 682.665)" fill="#fff"/>
    </clipPath>
  </defs>
  <g id="g648" transform="translate(336.143 661.428)">
    <g id="g650" transform="translate(-375.143 23.237)">
      <g id="g652" transform="translate(39 -684.665)" clip-path="url(#clip-path)">
        <g id="g658" transform="translate(5.015 0)">
          <path id="path660" d="M-260.919-26.667a2.507,2.507,0,0,1,.962.192l24.573,10.2a2.507,2.507,0,0,1,1.546,2.316v12.4a41.851,41.851,0,0,1-26.133,38.893,2.507,2.507,0,0,1-1.9,0A41.851,41.851,0,0,1-288-1.554v-12.4a2.507,2.507,0,0,1,1.546-2.316l24.573-10.2A2.507,2.507,0,0,1-260.919-26.667Zm22.066,14.384-22.066-9.161-22.066,9.161V-1.554a36.847,36.847,0,0,0,22.066,33.848A36.847,36.847,0,0,0-238.853-1.554Z" transform="translate(287.999 26.667)" fill="#fff"/>
        </g>
        <g id="g662" transform="translate(19.809 22.052)">
          <path id="path664" d="M-17.152-68.049a2.5,2.5,0,0,1-1.773-.734l-7.008-7.008a2.507,2.507,0,0,1,0-3.546,2.507,2.507,0,0,1,3.546,0l5.235,5.235L-6.374-84.88a2.507,2.507,0,0,1,3.546,0,2.507,2.507,0,0,1,0,3.546l-12.551,12.55A2.5,2.5,0,0,1-17.152-68.049Z" transform="translate(26.667 85.614)" fill="#fff"/>
        </g>
      </g>
    </g>
  </g>
</svg>
