<svg id="favorite" xmlns="http://www.w3.org/2000/svg" width="59.422" height="59.422" viewBox="0 0 59.422 59.422">
  <g id="Group_107" data-name="Group 107" transform="translate(7.812 7.08)">
    <g id="Group_106" data-name="Group 106">
      <path id="Path_472" data-name="Path 472" d="M110.441,76.638A1.741,1.741,0,0,0,109,75.448L96.02,73.854,90.495,62.005a1.741,1.741,0,0,0-3.156,0L81.814,73.854,68.837,75.448a1.741,1.741,0,0,0-.975,3l9.562,8.917L74.929,100.2a1.741,1.741,0,0,0,2.553,1.855l11.435-6.338,11.435,6.338a1.741,1.741,0,0,0,2.553-1.855l-2.494-12.834,9.562-8.917A1.741,1.741,0,0,0,110.441,76.638Zm-13.11,8.84a1.741,1.741,0,0,0-.522,1.605L98.775,97.2l-9.014-5a1.741,1.741,0,0,0-1.688,0l-9.014,5,1.966-10.117a1.741,1.741,0,0,0-.522-1.605l-7.537-7.029L83.2,77.192a1.741,1.741,0,0,0,1.366-.992l4.356-9.34,4.356,9.34a1.741,1.741,0,0,0,1.366.992l10.229,1.256Z" transform="translate(-67.308 -61)" fill="#fff"/>
    </g>
  </g>
  <g id="Group_109" data-name="Group 109" transform="translate(0 0)">
    <g id="Group_108" data-name="Group 108">
      <path id="Path_473" data-name="Path 473" d="M50.72,8.7A29.711,29.711,0,1,0,8.7,50.72,29.711,29.711,0,1,0,50.72,8.7ZM48.258,48.258A26.229,26.229,0,1,1,11.164,11.164,26.229,26.229,0,1,1,48.258,48.258Z" transform="translate(0 0)" fill="#fff"/>
    </g>
  </g>
</svg>
