<svg xmlns="http://www.w3.org/2000/svg" xmlns:xlink="http://www.w3.org/1999/xlink" width="674" height="226.835" viewBox="0 0 674 226.835"><defs><clipPath id="a"><rect width="674" height="226.834" fill="#fff"/></clipPath></defs><g clip-path="url(#a)"><path d="M672.891,226.834H620.379a1.11,1.11,0,0,1-.982-1.627c16.643-31.568,15.16-43.085,12.793-47.141a6.258,6.258,0,0,0-5.373-3.19c-5.676-.185-24.372,6.2-24.561,6.262a1.11,1.11,0,0,1-1.461-1.174c.02-.173.622-5.637,1.078-13.642L572.8,173.355c-18.782,6.4-22.866,20.714-22.906,20.858l-9.624,31.834a1.109,1.109,0,0,1-1.062.788H505.184a1.11,1.11,0,0,1-.992-1.606c2.413-4.827,2.947-11.3,3.512-18.164.482-5.858.981-11.916,2.71-17.362a14.925,14.925,0,0,1,.581-1.527,10.761,10.761,0,0,1-1.359.366c-2.746.5-13.431,10.64-19.171,16.089-2.13,2.021-3.969,3.767-5.073,4.733-4.408,3.857-21.38,10.116-26.339,9.7-2.992-.249-8.1-5.731-11.841-11.054-2.37-3.375-7.845-11.961-7.48-18.771.533-9.946-9.216-29.572-9.315-29.769a1.1,1.1,0,0,1-.114-.409,12.592,12.592,0,0,0-.268-1.741,9.186,9.186,0,0,0-.717,1.45c-.59,1.77.692,6.559,1.553,7.936a25.069,25.069,0,0,1,1.706,4.375,33.239,33.239,0,0,0,1.655,4.372,87.158,87.158,0,0,1,3.412,9.257,1.109,1.109,0,0,1-.182,1.016,1.121,1.121,0,0,1-.94.427l-24.971-1.464-45.643,23.53a1.069,1.069,0,0,1-.576.121L289.7,203.72a1.11,1.11,0,0,1-.408-2.11l49-23.3a1.078,1.078,0,0,1,.541-.1l72.236,4.233,9.728-5.015-90.258-4.954a1.11,1.11,0,0,1-.369-2.131L366,155.277H351.746c.288,2.093.385,5.655-2.108,6.422a3.626,3.626,0,0,1-3.191-.474,3.725,3.725,0,0,1-2.211,1.411,6.919,6.919,0,0,1-4.448-.425c-.017.045-.036.09-.056.135a2.929,2.929,0,0,1-2.19,1.593,7.928,7.928,0,0,1-4.422-.317,6.055,6.055,0,0,1-3.842.713c-1.559-.092-3.041-1.114-4.289-2.957-1.144-1.689-2.089-4.149-1.691-5.344a6.111,6.111,0,0,0,.145-1.473,6.57,6.57,0,0,1,.47-2.739,5.329,5.329,0,0,1,1.863-1.862,4.043,4.043,0,0,0,.951-.8,4.682,4.682,0,0,0,.224-1.318,5.879,5.879,0,0,1,.729-2.794,5.8,5.8,0,0,1,2.813-1.785,6.059,6.059,0,0,0,1.579-.788c.072-.072.085-.1.154-.341.35-1.213,1.026-2.018,3.749-3.055,3.878-1.475,8.95,4.421,10.967,7.05,1.412-1.1,4.127-3.237,5.285-4.394.277-.277.706-.691,1.235-1.2,2.3-2.215,7.676-7.4,8.515-9.36.747-1.743,4.084-6.534,6.316-6.082.409.084,1.36.455,1.36,2.082,0,1.513,2.145,6.5,3.869,10.506,1.641,3.815,3.058,7.11,3.328,8.727a69.833,69.833,0,0,1,.56,8.688h4.209c.4-.887,1.836-2.087,6.046-5.163.552-.4,1.061-.775,1.477-1.087.476-.357.943-.732,1.4-1.1,1.814-1.453,3.527-2.825,5.448-3,.9-.082,4.3.017,9.762.184,4.136.126,9.447.291,12.082.271,2.257-.205,2.374-.08,2.662.228a1.112,1.112,0,0,1,.247,1.1,1.144,1.144,0,0,1-.951.78,11.351,11.351,0,0,1-1.642.1c-4.463.432-17.154,1.918-19.788,2.4a32.506,32.506,0,0,1-9.343,7.375,1.1,1.1,0,0,1-.509.124h-5.3c-1.5,4.241-2.015,6.779-1.53,7.54.183.287.307.3.348.3.406.038,1.122-.513,1.414-.829a1.109,1.109,0,0,1,1.846.341.473.473,0,0,0,.271.3,2.605,2.605,0,0,0,1.6-.172,1.113,1.113,0,0,1,1.442.563,5,5,0,0,0,1.581,2c.661-.031,2.807-1.3,4.671-2.777a1.11,1.11,0,0,1,1.694,1.339.891.891,0,0,0,.019,1.027,4.094,4.094,0,0,0,2.886,1.1,16.651,16.651,0,0,0,2.5-1.057c2.142-1.012,3.744-1.728,4.865-1.728h.295c6.908,0,12.365-1.656,15.377-4.668,4.545-4.544.389-13.057.346-13.143a1.111,1.111,0,0,1,.378-1.418,4.8,4.8,0,0,1,1.016-.47c-.843-1.21-1.433-1.959-1.454-1.984a49.833,49.833,0,0,0-5.617-4.471c-3.909-2.887-6.535-4.875-7.38-6.144a26.425,26.425,0,0,1-2.257-4.936,16.118,16.118,0,0,0-1.015-2.382,13.712,13.712,0,0,0-2.35-1.22,14.421,14.421,0,0,1-3.855-2.2A4.637,4.637,0,0,1,399,118.9c-.777-.471-2.158-1.331-3.208-2.119a3.5,3.5,0,0,1-1.456-3.526,3.019,3.019,0,0,1,2.692-2.156c2.657-.408,13.7,3.161,15.236,4.262,1.061.724,9.078,2.764,11.225,2.764h.007a15.664,15.664,0,0,0-1.231-5.551c-.817-.814-1.464-3.334-1.724-4.48l-2.182-5.274a1.109,1.109,0,0,1,.44-1.367,5.651,5.651,0,0,1,5.046-.619c3.791,1.37,6.152,6.408,6.577,7.682a22.515,22.515,0,0,0,2.45,3.9c.756,1.066,1.537,2.169,2.079,3.1.245.419.549.917.885,1.47,1.514,2.48,3.586,5.877,4.225,8.435a37.376,37.376,0,0,1,.576,5.833c.154,2.852.347,6.4.988,7.593.347.645,1.038,2.012,1.84,3.737,1.418-.141,2.646-.255,3.561-.336-.215-2.976-.472-11.074,2.4-16.922q.072-.259.151-.516l.378-1.234c2.42-7.908,5.732-18.74,10.466-21.579,1.492-.9,2.569-.387,3.08.386,2.087,3.159-2.984,15.727-9.069,20.139a9.853,9.853,0,0,0-2.908,3.547,26.373,26.373,0,0,0,.2,12.469l.43-.087c1.915-.383,5.078-.939,9.4-1.651,6.856-1.129,13.265,1.941,18.532,8.884a42.168,42.168,0,0,1,4.074,6.625q.376-.421.756-.841a51.9,51.9,0,0,0-1.153-11.117,1.089,1.089,0,0,1-.019-.353c.18-1.712-.489-4.021-1.081-6.057a16.155,16.155,0,0,1-.956-5c.195-2.735-.259-17.345-1.724-20.11-1.341-2.533-1.667-7.576-1.985-12.453-.11-1.7-.214-3.306-.357-4.786-.5-5.152-5.6-10.24-7.778-12.412l-.223-.223c-2.039-2.039-8.433-3.707-12.254-4.7C453.067,73.128,438.814,66.4,437.013,65a9.385,9.385,0,0,1-2.135-3.064c1.578,8.317-1.908,14.838-5.237,18.932-5.681,6.988-14.62,11.416-19.37,11.175-7.783-.4-10.817-13.059-11.76-18.483-.514-2.956-3.495-6.745-4.9-8.4-2.123,1.551-6.019,2.255-10.108,2.994a32.433,32.433,0,0,0-6.972,1.714C373,71.625,362.537,84.526,361.4,86.8c-.833,1.666-2.924,3.433-4.946,5.142-.995.84-1.934,1.634-2.658,2.358-1.557,1.557-3.156,5.122-4.216,7.481-.359.8-.67,1.492-.939,2.031-1.191,2.382-7.038,8.309-9.773,9.571-1.357.626-2.507,2.815-3.521,4.744a28.072,28.072,0,0,1-1.383,2.445,14.959,14.959,0,0,1-3.316,3.409c-1.533,1.315-3.849,3.3-7.943,7.139-3.27,3.065-3.9,7.032-4.254,10.982,1.437,1.9.828,6.413.689,6.968a11.95,11.95,0,0,0,.359,1.586,18.846,18.846,0,0,1,.593,2.842c.252,2.53-4.926,6.9-7.011,7.45l8.347,3.277a1.109,1.109,0,0,1-.255,2.131L309.925,167.9l18.649,10.072a1.11,1.11,0,0,1-.308,2.064l-46.78,9.43a1.114,1.114,0,0,1-.978-.278l-16.074-15.079-5.575.761a1.1,1.1,0,0,1-.779-.185l-11.834-8.136a1.11,1.11,0,0,1,.5-2.016l46.6-5.362a1.11,1.11,0,0,1,.654.126l2.557,1.381-.3-2.1a1.087,1.087,0,0,1,.006-.352l.249-1.394-.611-.24-51.126,4.838-5.523,19.3a1.109,1.109,0,0,1-1.709.6l-1.5-1.062-.043.159.85,3.229a1.11,1.11,0,0,1-.986,1.388l-15.27,1.2a2.991,2.991,0,0,1-1.747,2.959c-1.149.511-3.155.239-4.847-.15a2.082,2.082,0,0,1-.027.323,2.475,2.475,0,0,1-1.861,1.892c-2.142.765-7.415-.262-13.574-1.578-1.193-.255-2.222-.475-2.893-.593a33.988,33.988,0,0,0-6.531.311c-4.011.4-7.8.77-9.618-.015a1.11,1.11,0,0,1-.647-1.243c.58-2.817,1.437-10.749-1.528-13.581a1.108,1.108,0,0,1-.244-1.261,1.121,1.121,0,0,1,1.111-.646l.178.016a4.778,4.778,0,0,1-1.851-.895,4.41,4.41,0,0,1-1.014-3.936,3.507,3.507,0,0,1,2.026-2.675.777.777,0,0,0,.2-.129c-4.692,1.306-9.484,3.068-14.173,4.79-1.75.643-3.512,1.29-5.278,1.918,5.578-.428,10.5-.888,10.6-.9a1.074,1.074,0,0,1,.25,0c4.136.551,9.032,8.7,9.358,14.017.2,3.221-1.148,5.374-3.789,6.063-5.111,1.332-17.536,1.887-27.52,2.333-4.488.2-8.364.373-10.383.575-4.6.459-54.39,2.67-57.419,1.534-2.381-.894-3.927-4.152-4.539-5.686H1.109a1.109,1.109,0,0,1,0-2.219H75.616a1.11,1.11,0,0,1,1.052.758c.557,1.662,2,4.508,3.494,5.069,2.69.77,48.97-.92,56.419-1.664,2.081-.208,5.985-.382,10.505-.584,9.358-.418,22.175-.989,27.059-2.263.576-.15,2.329-.607,2.135-3.779-.3-4.81-4.743-11.424-7.328-11.937-1.444.134-11.841,1.091-19.258,1.471a52.765,52.765,0,0,1-15.262,2.358,1.109,1.109,0,0,1-1.065-.891l-.411-2.052c-9.142-.666-21.013-1.662-24.068-2.536-4.575-1.307-10.514-5-11.314-7.8-.18-.633-.457-3.173-.952-8.155-2.54-6.168-4.117-14.145-5.069-20.749-1.451-10.068-1.933-21.131-1.011-23.211a1.34,1.34,0,0,1,1.267-.874c.96.033,1.324,1.034,1.479,1.462,1.783,4.9,3.811,25.548,5.153,39.208.12,1.228.24,2.441.354,3.6a20.769,20.769,0,0,0,3.84,6.369c5.381,5.543,7.256,6.1,7.691,6.149a1.481,1.481,0,0,0,.009-.416,1.206,1.206,0,0,1-.012-.2A40.678,40.678,0,0,1,112,157.129a111.2,111.2,0,0,1-1.025-13.056c-.1-2.353-.192-4.576-.334-6.571-.62-8.69-18.617-36.824-26.58-45.706-2.284-2.548-6.186-5.63-10.317-8.893-2.046-1.615-4.107-3.243-6.066-4.871-.692.46-1.471.955-2.346,1.487-2.734,1.662-5.91,3.373-8.308,4.5q-.574,1.436-1.082,2.993c-4.739,14.547-3.295,31.98-1.437,35.139,3.187,5.418,8.711,22.655,10.375,34.3,1.56,10.923,8.488,27.38,8.557,27.545a1.109,1.109,0,0,1-1.021,1.542H42.04a1.109,1.109,0,0,1-1.064-.8c-3.931-13.365-4.465-30.279-5.031-48.186-.132-4.176-.268-8.495-.449-12.838a54.053,54.053,0,0,1,3.369-21.513c-.614-3.136-2.064-5.171-3.642-7.384-2.834-3.976-6.046-8.483-4.515-20.217C33.643,52.1,57.455,44.347,57.7,44.271a1.11,1.11,0,0,1,1.373.671,44.177,44.177,0,0,0,3.9,8.14A13.6,13.6,0,0,0,64.306,51.1a21.87,21.87,0,0,0-4.5-6.582,1.137,1.137,0,0,1-.162-.206c-3.948-6.46.146-22.133,8.113-31.056,9.6-10.754,33.358-9.118,38.025-8.68,7.712.723,15.024,6.317,14.853,9.965a2.436,2.436,0,0,1-.614,1.5,52.811,52.811,0,0,1,2.649,5.454,30.047,30.047,0,0,0,2.148,4.336c2.6,3.755,2,6.774,1.416,9.693a25.165,25.165,0,0,0-.469,2.979c-.234,3.036,4.271,9.135,6.026,11.228a1.11,1.11,0,0,1,.18,1.125c-1.322,3.308-3.332,3.441-4.8,3.538-1,.067-1.509.127-1.995.775-.508.676-.384,2.872-.274,4.809.224,3.956.5,8.88-2.877,11.489-3.082,2.379-12.227,1.108-14.128.811-2.995.88-5.046,3.163-6.426,6.157a1.133,1.133,0,0,1,.6.142c7.539,4.261,13.6,15,13.853,15.454a1.109,1.109,0,0,1-.43,1.51c-.427.242-10.461,6.146-2.74,21.885,8.04,16.391,9.431,27.221,4.373,34.083a20.587,20.587,0,0,0-2.835,5.787c.342,1.847.792,3.157,1.4,3.4,1.672.67,6.943-.426,10.792-1.226,1.241-.257,2.407-.5,3.448-.691l-3.588-17.94c-.073-.3-1.99-8.354,1.529-12.836a7.912,7.912,0,0,1,6.594-2.881L146.9,124.8a1.1,1.1,0,0,1,1.132,1c.026.249.069.685.127,1.275,2.537-5.036,1.564-8.924.535-13.031-.976-3.9-1.986-7.93-.261-13.1C152,90.229,160.805,79.945,164.773,78.5l.882-.317c12.587-4.52,20.212-8.168,22.662-10.841a1.11,1.11,0,0,1,1.9.528c.028.139,2.71,13.17,5.919,20.4,2.517-2.215,8.4-7.021,13.149-8.024l-.111-.242c-4.638-4.2-13.71-12.689-15-16.052a1.1,1.1,0,0,1-.027-.717,68.649,68.649,0,0,0,2.169-9.724c-.985-2.2-7.124-16.288-6.947-25.286.221-11.261,3.51-19.109,8.817-21.093C199.58,5.766,207.729-1.3,224.361,2.2c9.634,2.029,12.92,5.341,15.818,8.263a17.814,17.814,0,0,0,10.8,5.973,1.11,1.11,0,0,1,.887,1.018,7.06,7.06,0,0,1-6.561,7.628c.173.789.361,1.611.534,2.374,1.493,6.553,2.125,9.784,1.473,11.087l-.2.4c-.859,1.705-2.456,4.88-2.456,6.685a18.871,18.871,0,0,1-1.187,4.891,20.508,20.508,0,0,0-1.217,4.909c0,1.864-1.371,15.354-6.9,16.967-5.257,1.532-16.29-2.851-22.4-5.6-6.389-2.875-9.233-10.419-10.113-13.309a4.514,4.514,0,0,1-1.837-.5c.114.162.231.323.35.483a1.114,1.114,0,0,1,.166.32c1.76,5.4,5.567,16.132,9.5,24.888.762.687,1.5,1.341,2.192,1.95a1.109,1.109,0,0,1-.392,1.889c2.178,4.428,4.305,7.905,6.051,9.18,7.444,5.432,6.792,36.277,5.979,40.139-.453,2.152-1.863,10.66-3.02,18.5l9.182-35.283a6.363,6.363,0,0,1,2.8-3.542,4.745,4.745,0,0,1,3.8-.189.568.568,0,0,1,.059.022l13.5,5.362a5.878,5.878,0,0,1,1.377.8c-.614-1.052-1.123-1.95-1.464-2.558a1.113,1.113,0,0,1-.084-.9c4.951-14.716,5.128-26.2.526-34.147a19.5,19.5,0,0,0-6.452-6.74c-.682.075-1.391.169-2.118.279,1.153,6.273-1.143,15.532-1.479,16.833a1.11,1.11,0,0,1-1.969.378c-1.49-2.037-5.9-7.533-8.382-8.5-1.213-.472-5.019,4.824-7.837,10.9a1.109,1.109,0,0,1-2.091-.7c.312-1.466,3.168-14.388,7.131-17,1.889-1.243,6.846-2.737,11.809-3.677a4.134,4.134,0,0,0-.72-1.069,1.109,1.109,0,0,1,1.017-1.856,18.239,18.239,0,0,1,5.2,2.138,15.192,15.192,0,0,1,6.089.324c4.019,1.608,13.907,11.006,16.531,14.193,1.721,2.088,7.725,10.853,12.55,17.9,2.469,3.6,4.6,6.716,5.428,7.861,1.971,2.729,6.284,6.771,9.749,10.02.627.587,1.221,1.144,1.763,1.658a24.032,24.032,0,0,0,5.147,2.957c3.983,1.937,8.1,3.94,9.128,7.021a4.672,4.672,0,0,1-.369,3.724q-.217.422-.454.8c2.291-1.041,2.808-.886,3.277-.535a12.611,12.611,0,0,1,2.043,2.6c.5-3.474,1.565-7.011,4.668-9.92,4.129-3.872,6.468-5.878,8.015-7.2a13.084,13.084,0,0,0,2.915-2.955c.4-.6.82-1.4,1.265-2.246,1.178-2.243,2.514-4.785,4.555-5.727,2.208-1.02,7.756-6.626,8.718-8.55.249-.5.55-1.169.9-1.946,1.193-2.658,2.826-6.3,4.671-8.141.79-.79,1.764-1.613,2.795-2.485,1.765-1.49,3.764-3.181,4.393-4.438,1.137-2.274,11.96-15.854,16.125-17.934,1.708-.853,4.555-1.367,7.568-1.912,3.8-.687,8.526-1.541,9.7-3.075a1.109,1.109,0,0,1,.827-.434,1.128,1.128,0,0,1,.691.2,31.713,31.713,0,0,1-1.381-3.222c-1.868.094-4.649-.707-6.357-4.265-2.521-5.251-4.612-10.519-2.866-13.49a4.183,4.183,0,0,1,3.614-1.964,1.113,1.113,0,0,1,.973.467c-.576-1.957-.791-4,.022-5.512a3.71,3.71,0,0,1,.622-.844c-1.748.221-2.879.317-3.126.337a1.116,1.116,0,0,1-1.18-.908c-1.395-7.669-1.075-21.62,16.727-28.892,10.545-4.308,17.993-2.344,22.383.063a20.526,20.526,0,0,1,6.91,6.1c10.467,4.379,7.257,19.938,5.823,25.216.032.638.059,1.251.08,1.811a2.2,2.2,0,0,1,.665-.112h.027c.993,0,1.843.653,2.525,1.941,1.456,2.751.66,9.745-1.495,13.129a4.448,4.448,0,0,1-2.435,2.064l-.527,2.632c.751,2.173,2.125,5.322,3.048,6.04,1.473,1.145,15.278,7.743,19.569,8.863,5.463,1.426,10.988,3.007,13.263,5.281l.221.221c2.347,2.341,7.844,7.824,8.419,13.77.147,1.514.252,3.137.364,4.855.287,4.428.613,9.446,1.732,11.558,1.914,3.615,2.123,19.23,1.975,21.307a15.256,15.256,0,0,0,.874,4.223,20.194,20.194,0,0,1,1.173,6.725,58.044,58.044,0,0,1,1.164,9l1.114-1.2a61.941,61.941,0,0,0,6-6.99c.1-.165,9.609-16.625,12.683-24.619,1.634-4.249,7.173-11.806,11.638-17.525l.881-4.657a1.107,1.107,0,0,1,.372-.64c.461-.391,1.717-1.451,3.461-2.873a1.777,1.777,0,0,0-.3-.156c-1.326-.533-3.44.449-5.68,1.485-2.577,1.193-5.24,2.426-7.847,2.006-5.235-.845-5.481-5.472-5.644-8.534a15.516,15.516,0,0,0-.252-2.478c-.351-1.492-2.188-4.3-3.965-7.024a54.3,54.3,0,0,1-4.3-7.313c-1.162-2.732-1.418-6.854-1.644-10.491a25.669,25.669,0,0,0-.589-5.167,7.421,7.421,0,0,0-1.819-2.5,6.892,6.892,0,0,1-1.907-2.762,8.531,8.531,0,0,1,.022-3.75,71.083,71.083,0,0,0,.671-8.8A9.421,9.421,0,0,1,492.2,29c-3.12.371-8.257-.3-10.332-2.991a4.605,4.605,0,0,1-.448-4.844C483.784,15.445,502.13-1.763,527.455.147c21.873,1.645,24.81,9.243,25.193,11.576,2.475,1.813,12.936,11.308,6.668,38.61-.1.475-.174.742-.18.767a1.109,1.109,0,0,1-2.15-.549c.065-.276.129-.551.191-.823.9-4.224,4.172-24.359-12.285-34.988-3.936,2.085-26.073,13.347-43.6,12.4a12.493,12.493,0,0,0-5.824,1.875c1.538,3.022,1.864,8.412,1.93,11.01a3.326,3.326,0,0,1,1.44.6c3.255,2.319,4.3,11.231,4.585,14.735l1.017-.226c-.411-2.493-.886-8.161,2.978-9.449,4.9-1.631,11.718,5.913,15,11.79,3.187,5.7,6.878,8.309,20.326,8.677,12.284.352,12.726-7.182,12.729-7.258a1.109,1.109,0,0,1,2.218.047,23.737,23.737,0,0,0,.7,5.262,1.25,1.25,0,0,1,.026.125,18.706,18.706,0,0,0,3.485,8.364,22.327,22.327,0,0,1,3.976.513,1.11,1.11,0,0,1,.787.66l2.219,5.362a1.11,1.11,0,0,1-1.56,1.4,24.336,24.336,0,0,1-6.552-5.726,33.609,33.609,0,0,0-7.829,1.307,45.547,45.547,0,0,1-5.85,1.19c-3.66.425-13.785,7.955-20.768,13.536.079.165.153.337.224.517a1.109,1.109,0,0,1-.183,1.122c-.05.059-1.756,2.09-4.094,5.021,13.968-8.734,42.517-16.931,48.7-16.079,6.152.855,17.544,9.23,23.665,13.73.768.565,1.437,1.057,1.978,1.446,5.3,3.816,14.89,34.075,15.97,39.322.909,4.416-.139,17.6-.912,25.659l11.769-2.846c.747-.2,19.022-5,25.505,2.039,2.631,2.856,2.949,7.139.946,12.727L638.785,200.63a1.109,1.109,0,0,1-2.081-.763c3.882-12,8.174-31.928,3.162-34.345-7.412-3.577-29.4,3.5-29.62,3.575a1.109,1.109,0,0,1-1.445-1.18c.007-.055.15-1.335.357-3.357l-5,1.208c-.328,5.792-.743,10.35-.981,12.721,4.72-1.557,18.165-5.834,23.439-5.834.09,0,.176,0,.261,0a8.415,8.415,0,0,1,7.224,4.29c4.449,7.626.334,24.089-11.9,47.667h50.68a1.109,1.109,0,1,1,0,2.219" transform="translate(0 0)" fill="#fff"/></g></svg>