<svg xmlns="http://www.w3.org/2000/svg" xmlns:xlink="http://www.w3.org/1999/xlink" width="234.392" height="185.428" viewBox="0 0 234.392 185.428"><defs><clipPath id="a"><rect width="234.392" height="185.428" fill="none"/></clipPath></defs><g transform="translate(0)"><g transform="translate(0)" clip-path="url(#a)"><path d="M42.632,18.759A16.356,16.356,0,1,0,56.41.18,16.357,16.357,0,0,0,42.632,18.759" transform="translate(-6.468 0)" fill="#f18f01"/><path d="M91.79,35.048A76.749,76.749,0,1,1,1.5,95.285,76.75,76.75,0,0,1,91.79,35.048" transform="translate(0 -5.111)" fill="#f18f01"/><path d="M128.385,19.593c36.344,11.565,36,39.559,48.024,50.4l-44.415,35.1c-5.612-6.865-21.317-27.543-29.8-37.212C86.47,49.951,72.129,43.08,61.213,55.639l-25.561-7.3S63.846-.944,128.385,19.593" transform="translate(-5.432 -2.222)" fill="#fff"/><path d="M131.884,105.606a.617.617,0,0,1-.479-.227c-1.909-2.335-4.979-6.26-8.534-10.8-6.976-8.918-15.659-20.018-21.249-26.392C90.891,55.945,81.5,49.741,73.715,49.741h-.033c-4.475.01-8.55,2.094-12.113,6.193a.618.618,0,0,1-.637.189l-25.56-7.3a.618.618,0,0,1-.367-.9A73.773,73.773,0,0,1,57.37,25.637,72.993,72.993,0,0,1,86.467,14.7c13.054-1.929,27.183-.518,41.994,4.195,25.044,7.97,32.838,23.656,39.1,36.26,2.907,5.851,5.417,10.9,9.151,14.271a.617.617,0,0,1-.031.943l-44.415,35.105a.619.619,0,0,1-.382.133m-58.17-57.1c8.159,0,17.861,6.345,28.838,18.863,5.613,6.4,14.307,17.515,21.294,26.446,3.32,4.244,6.217,7.947,8.133,10.312l43.373-34.281c-3.613-3.5-6.072-8.452-8.9-14.14-6.157-12.4-13.822-27.821-38.367-35.632-33.108-10.535-56.366-2.223-70.046,6.6A73.867,73.867,0,0,0,36.495,47.862l24.4,6.965c3.747-4.185,8.045-6.311,12.782-6.322Z" transform="translate(-5.321 -2.112)"/><path d="M165.388,55.01A7.388,7.388,0,1,1,158,47.622a7.388,7.388,0,0,1,7.388,7.388" transform="translate(-22.947 -7.256)"/><path d="M57.286,66.419A13.731,13.731,0,1,0,36.81,48.14s-5.737,6.411-7.354,8.771c-4.264,6.223-7.939,16.838-9.653,25.568s-4.411,16.529,7.06,22.731,12.465-4.1,11.082-6.24-5.539-3.33-5.539-7.141a32.915,32.915,0,0,1,.18-4.024s3.964,6.664,9.5,2.237q-.182.552-.405,1.12c-1.753,4.459-3.4,10.143,2.367,11.585s8.335-7.5,10.79-14.507c2.348-6.7,4.053-12.852,2.012-20.031a1.86,1.86,0,0,1,.44-1.789" transform="translate(-2.779 -6.586)" fill="#fff"/><path d="M215.5,194.484l-72.254,0-4.37,17.109h80.842c-2.195-15.044-4.218-17.111-4.218-17.111" transform="translate(-21.158 -29.631)"/><path d="M219.6,212.1H138.761a.617.617,0,0,1-.6-.771l4.37-17.109a.619.619,0,0,1,.6-.465l72.253,0a.618.618,0,0,1,.442.186c.222.226,2.227,2.639,4.388,17.455a.618.618,0,0,1-.612.707m-80.046-1.236h79.331c-1.755-11.736-3.351-15.095-3.821-15.875l-71.455,0Z" transform="translate(-21.047 -29.52)"/><path d="M238.059,102.113c14.52,25.936,34.32,78.738-6.323,92.376-21.279,7.141-40.021-4.816-53.05-17.831H145.436l-.286-59.464a36.582,36.582,0,0,1,21.392-33.579q.473-.214.956-.422l5.633-2.071,18.99-3.341c12.393-1.449,33.061,1.331,45.939,24.332" transform="translate(-22.115 -11.802)" fill="#fff"/><path d="M218.83,197.119c-16.489,0-30.694-10.2-40.51-19.954h-33a.618.618,0,0,1-.618-.615l-.285-59.464a37.2,37.2,0,0,1,21.756-34.146q.477-.215.965-.426a.618.618,0,0,1,.489,1.135q-.478.206-.947.418a35.961,35.961,0,0,0-21.027,33.012l.282,58.848h32.637a.617.617,0,0,1,.437.181c12.058,12.044,30.94,24.888,52.417,17.683,10.451-3.508,17.538-9.917,21.064-19.053,7.663-19.854-2.768-50.436-15.085-72.435-13.9-24.837-36.333-25.072-45.328-24.02a.618.618,0,0,1-.144-1.228c9.244-1.079,32.282-.842,46.551,24.644a161.608,161.608,0,0,1,14.694,35.4c4.125,15.384,4.281,28.2.465,38.086-3.664,9.5-11.007,16.15-21.823,19.78a40.615,40.615,0,0,1-12.992,2.155" transform="translate(-22.004 -11.692)"/><path d="M118.56,156.088h-8.706a.051.051,0,0,1-.05-.04,23.267,23.267,0,0,0-2.5-6.256l6.116-6.116-7.991-7.992-5.977,5.978a23.282,23.282,0,0,0-6.435-2.794v-8.325h-11.3V138.7a23.277,23.277,0,0,0-6.693,2.7L69.3,135.684l-7.992,7.991h0L67,149.363a23.289,23.289,0,0,0-2.757,6.724H56.169v11.3h8.175a23.287,23.287,0,0,0,2.826,6.552l-5.859,5.86,7.991,7.991,6-6a23.23,23.23,0,0,0,6.413,2.538v8.6h11.3v-8.765a23.3,23.3,0,0,0,6.167-2.622l6.245,6.245,7.991-7.991-6.276-6.277a23.3,23.3,0,0,0,2.558-6.1.053.053,0,0,1,.052-.041h8.808ZM94.146,171.681c-11.514,6.612-23.336-5.21-16.724-16.724a8.567,8.567,0,0,1,3.161-3.161c11.514-6.612,23.336,5.21,16.724,16.724a8.573,8.573,0,0,1-3.161,3.161" transform="translate(-8.558 -19.889)" fill="#0095eb"/><path d="M190.487,41.678A18.759,18.759,0,1,1,165.6,32.5a18.759,18.759,0,0,1,24.891,9.178" transform="translate(-23.568 -4.688)"/><path d="M188.973,62.05c-6.656,3.508-12.224.563-12.8-4.944,0,0-8.388-16.329-15.631-13.916-4.421,2.213-6.155,7.519-4.909,13.411.546,2.584,1.564,9.677,3.281,14.689,1.708,4.991,3.913,10.643,15.753,4.574l3.746,8.122,16.215-9.671Z" transform="translate(-23.652 -6.543)" fill="#fff"/><path d="M176.293,82.4a.619.619,0,0,1-.593-.446l-1.531-5.271c-4.7,2.307-8.258,2.919-10.856,1.87-3.08-1.243-4.246-4.644-5.1-7.128a89.851,89.851,0,0,1-2.827-12.232c-.186-1.029-.346-1.918-.475-2.529-1.352-6.4.655-11.8,5.238-14.091a.618.618,0,1,1,.553,1.1c-4.056,2.032-5.811,6.91-4.582,12.732.133.629.294,1.527.481,2.566a88.9,88.9,0,0,0,2.779,12.05c1,2.928,2.025,5.429,4.39,6.383s5.8.249,10.5-2.159a.619.619,0,0,1,.876.378l1.738,5.983a.618.618,0,0,1-.593.791" transform="translate(-23.539 -6.476)"/><path d="M200.581,78.255a.617.617,0,0,1-.561-.359l-5.657-12.264a.618.618,0,1,1,1.123-.518l5.656,12.264a.618.618,0,0,1-.561.877" transform="translate(-29.604 -9.866)"/><path d="M178.049,81.891a.618.618,0,0,1-.29-1.164l4.159-2.206a.618.618,0,0,1,.578,1.093l-4.158,2.2a.624.624,0,0,1-.289.072" transform="translate(-27.033 -11.952)"/><path d="M170.626,60.669a1.25,1.25,0,1,1-1.658-.611,1.25,1.25,0,0,1,1.658.611" transform="translate(-25.633 -9.133)"/><path d="M159.544,62.831a1.25,1.25,0,1,1-1.658-.611,1.25,1.25,0,0,1,1.658.611" transform="translate(-23.944 -9.462)"/><path d="M182.7,79.053s2.072,7.183-2.8,8.693l-1.738-6.381Z" transform="translate(-27.144 -12.044)"/><path d="M247.469,170.929a.618.618,0,0,1-.615-.56c-.06-.637-1.646-15.635-17.229-18.4l-.128-.023c-16.3-2.892-27.069-4.8-44.1-14.034a.618.618,0,1,1,.589-1.087c16.849,9.136,27.54,11.033,43.722,13.9l.128.022c16.524,2.933,18.229,19.337,18.244,19.5a.618.618,0,0,1-.559.672l-.058,0" transform="translate(-28.198 -20.835)"/><path d="M220.916,146.228a.617.617,0,0,1-.6-.475l-6.776-28.349a.618.618,0,1,1,1.2-.287l6.776,28.348a.619.619,0,0,1-.458.745.649.649,0,0,1-.144.017" transform="translate(-32.532 -17.772)"/><path d="M181.15,99.185c-.145,0-.287-.005-.428-.014-9.533-.656-9.924-15.218-9.936-15.837a.618.618,0,0,1,1.235-.024c0,.141.379,14.05,8.786,14.628,8.65.611,26.089-20.315,26.263-20.527a.618.618,0,0,1,.952.788c-.72.87-17.492,20.986-26.872,20.986" transform="translate(-26.02 -11.76)"/><path d="M181.766,190.859a.617.617,0,0,1-.448-.192c-.075-.08-2.024-2.2-15.853-23.091a.618.618,0,0,1,1.031-.682c13.769,20.8,15.7,22.9,15.72,22.923a.617.617,0,0,1-.023.873.611.611,0,0,1-.426.17" transform="translate(-25.194 -25.385)"/><path d="M137.082,107.823l14.9,33.871a5.275,5.275,0,1,0,9.421-4.735l-18.778-32.474Z" transform="translate(-20.885 -15.919)"/><path d="M117.6,26.172a29.824,29.824,0,0,0-7.961-6.136c-4.244-2.068-7.383-1.416-9.269-.506L94.832,22.2v0c-1.864.948-4.218,3.013-5.208,7.5a29.824,29.824,0,0,0-.144,10.051c.973,7.544,3.918,16.688,8.292,25.745s9.7,17.049,15.009,22.5a29.85,29.85,0,0,0,7.961,6.136c4.244,2.068,7.383,1.417,9.269.506.1-.05.208-.1.314-.16l5.061-2.436c1.886-.91,4.348-2.964,5.366-7.575a29.846,29.846,0,0,0,.143-10.05c-.973-7.544-3.918-16.688-8.292-25.745s-9.7-17.048-15.009-22.5" transform="translate(-13.58 -2.844)" fill="#0095eb"/><path d="M123.266,54.805c8.66,17.932,10.985,34.736,5.193,37.534s-17.51-9.471-26.17-27.4S91.3,30.2,97.1,27.4s17.51,9.471,26.17,27.4" transform="translate(-14.308 -4.114)" fill="#fff"/><path d="M126.561,93.238c-6.519,0-16.9-11.506-24.939-28.142-8.943-18.518-11.1-35.367-4.905-38.358s18.051,9.171,27,27.69,11.1,35.367,4.905,38.358a4.672,4.672,0,0,1-2.056.452M98.838,27.506a3.606,3.606,0,0,0-1.583.344c-5.384,2.6-2.874,19.411,5.48,36.709,7.608,15.753,17.915,27.459,23.761,27.459a3.61,3.61,0,0,0,1.584-.344c5.383-2.6,2.874-19.411-5.481-36.709-7.608-15.753-17.915-27.459-23.761-27.459" transform="translate(-14.198 -4.005)"/><path d="M120.352,59.311c5.1,10.569,6.475,20.474,3.061,22.123s-10.32-5.583-15.425-16.152-6.475-20.474-3.061-22.123,10.321,5.582,15.425,16.151" transform="translate(-15.7 -6.54)"/><path d="M177.065,133.566l-11.726-6.036s-8.845-12.884-16.9-10.993c0,0,3.037,5.069-.677,6.39s-6.622-4.8-6.622-4.8-7.184,5.943-3.681,11.605c0,0-3.584,8.087,2.265,11.435,0,0-2.781,7.107,4.016,9.682a5.27,5.27,0,0,0,3.193,5.561c1.088.543,13.183,3.262,13.183,3.262l.231.179a15.639,15.639,0,1,0,16.713-26.285" transform="translate(-20.778 -17.726)" fill="#fff"/><path d="M169.784,163.623a16.212,16.212,0,0,1-9.917-3.393l-.123-.1c-1.744-.392-12.1-2.737-13.191-3.281a5.964,5.964,0,0,1-3.574-5.714,7.16,7.16,0,0,1-3.91-3.666,9.236,9.236,0,0,1-.19-6.146c-5.03-3.314-2.789-10.134-2.21-11.652-3.359-5.965,3.9-12.072,3.974-12.134a.618.618,0,0,1,.952.21c.027.057,2.712,5.6,5.856,4.483a1.953,1.953,0,0,0,1.3-1.182c.5-1.4-.511-3.584-.943-4.309a.619.619,0,0,1,.389-.919c8.015-1.878,16.439,9.671,17.456,11.116l11.59,5.966a16.264,16.264,0,0,1-7.457,30.717m-28.917-44.611c-1.553,1.51-5.6,6.061-2.985,10.284a.624.624,0,0,1,.04.576c-.137.309-3.285,7.619,2.006,10.648a.618.618,0,0,1,.269.762,8.38,8.38,0,0,0,.006,5.7,6.142,6.142,0,0,0,3.654,3.181.618.618,0,0,1,.387.7,4.643,4.643,0,0,0,2.863,4.888c.743.371,8.393,2.167,13.042,3.211a.61.61,0,0,1,.242.114l.232.179A15.021,15.021,0,1,0,176.675,134l-11.726-6.036a.617.617,0,0,1-.226-.2c-.084-.121-8.1-11.664-15.448-10.877.5,1.065,1.2,3.009.64,4.576a3.163,3.163,0,0,1-2.048,1.931c-3.385,1.205-6.038-2.7-7-4.387" transform="translate(-20.67 -17.615)"/><path d="M146.619,148.711a.613.613,0,0,1-.231-.045l-6.4-2.575a.618.618,0,1,1,.461-1.146l6.4,2.574a.618.618,0,0,1-.231,1.192" transform="translate(-21.269 -22.077)"/><path d="M147.223,158.588a.62.62,0,0,1-.255-.055L144.7,157.5a.618.618,0,1,1,.511-1.125l2.266,1.03a.618.618,0,0,1-.256,1.181" transform="translate(-21.991 -23.817)"/><path d="M148.527,137.7a.605.605,0,0,1-.258-.057l-10.98-5.049a.618.618,0,1,1,.516-1.122l10.98,5.049a.618.618,0,0,1-.259,1.18" transform="translate(-20.862 -20.021)"/><path d="M56.965,109.71l-3.567,1.9a.024.024,0,0,1-.03-.005,10.794,10.794,0,0,0-2.39-2.018l1.172-3.84-5.017-1.532-1.145,3.753a10.822,10.822,0,0,0-3.246.259l-1.815-3.411L36.3,107.279l1.78,3.344a10.809,10.809,0,0,0-2.155,2.565l-3.591-1.1L30.8,117.109l3.571,1.09a10.813,10.813,0,0,0,.337,3.357L31.4,123.316l2.465,4.631,3.349-1.783a10.845,10.845,0,0,0,2.587,2.068l-1.122,3.679,5.016,1.532,1.15-3.766a10.794,10.794,0,0,0,3.181-.359l1.876,3.525,4.631-2.465-1.911-3.591a10.808,10.808,0,0,0,1.956-2.418l3.92,1.2,1.532-5.017-3.941-1.2a10.824,10.824,0,0,0-.281-3.056.026.026,0,0,1,.012-.028l3.609-1.921Zm-6.6,11.714a5.607,5.607,0,0,1-10.5-3.206,3.978,3.978,0,0,1,.606-1.984,5.607,5.607,0,0,1,10.5,3.206,3.978,3.978,0,0,1-.606,1.984" transform="translate(-4.693 -15.878)"/><path d="M89.847,106.433a.614.614,0,0,1-.437-.181L80.838,97.68a.618.618,0,0,1,.874-.874l8.572,8.572a.618.618,0,0,1-.437,1.054" transform="translate(-12.289 -14.722)"/><path d="M81.275,106.433a.618.618,0,0,1-.437-1.054l8.571-8.572a.618.618,0,0,1,.874.874l-8.571,8.571a.615.615,0,0,1-.437.181" transform="translate(-12.289 -14.722)"/><path d="M33.031,107.685a14.184,14.184,0,0,1-6.573-2.04c-10.976-5.935-9.426-13.429-7.784-21.364.138-.67.277-1.347.412-2.029,1.583-8.071,5.212-19.178,9.748-25.8,1.609-2.348,7.081-8.474,7.4-8.827A14.349,14.349,0,1,1,57.623,66.735a1.246,1.246,0,0,0-.293,1.2c2.121,7.459.253,13.908-2.023,20.4-.186.53-.372,1.07-.559,1.616-2.185,6.345-4.64,13.466-9.569,13.466a5.757,5.757,0,0,1-1.4-.18,5.586,5.586,0,0,1-3.864-2.756c-1.362-2.644-.223-6.364,1.071-9.655,1.117-2.841,1.289-4.938.511-6.229-.609-1.01-1.866-1.631-3.736-1.841a3.61,3.61,0,0,0-2.969.768c-1.883,1.683-1.883,5.76-1.883,8.2,0,2.186,1.6,3.423,3.15,4.62a9.628,9.628,0,0,1,2.291,2.187c.95,1.471.886,5.245-1.149,7.446a5.434,5.434,0,0,1-4.172,1.713m14.21-63.936a13.122,13.122,0,0,0-10.069,4.678l-.014.015c-.057.064-5.728,6.407-7.3,8.709C25.418,63.626,21.859,74.543,20.3,82.49c-.136.687-.276,1.367-.415,2.042-1.613,7.8-3,14.529,7.162,20.026,4.266,2.306,7.465,2.506,9.251.576A6.033,6.033,0,0,0,37.314,99.2a8.809,8.809,0,0,0-2.009-1.88c-1.617-1.249-3.63-2.8-3.63-5.6,0-2.643,0-7.067,2.3-9.118A4.839,4.839,0,0,1,37.9,81.528c2.273.256,3.84,1.075,4.657,2.432,1,1.661.863,4.055-.42,7.319-1.122,2.856-2.265,6.418-1.122,8.637a4.36,4.36,0,0,0,3.064,2.122c4.781,1.194,7.286-6.076,9.5-12.49.189-.548.376-1.09.562-1.622,2.208-6.3,4.023-12.546,2-19.658a2.487,2.487,0,0,1,.587-2.384,13.1,13.1,0,0,0-9.486-22.135M36.7,48.03h0Z" transform="translate(-2.669 -6.477)"/><path d="M40.744,100.08a5.434,5.434,0,0,1-.976-.089c-3.2-.581-5.165-3.83-5.247-3.969a.618.618,0,0,1,1.062-.632c.025.043,1.775,2.911,4.412,3.386a5.145,5.145,0,0,0,4.167-1.316.618.618,0,1,1,.772.965,6.7,6.7,0,0,1-4.19,1.655" transform="translate(-5.246 -14.487)"/><path d="M41.376,94.738a.617.617,0,0,1-.61-.721l.819-4.818a.618.618,0,1,1,1.219.208l-.819,4.817a.618.618,0,0,1-.609.515" transform="translate(-6.21 -13.512)"/><path d="M165.36,43.028a8.2,8.2,0,1,1-8.2-8.2,8.2,8.2,0,0,1,8.2,8.2" transform="translate(-22.696 -5.307)"/><path d="M155.575,50.18a8.817,8.817,0,1,1,8.815-8.817,8.827,8.827,0,0,1-8.815,8.817m0-16.4a7.581,7.581,0,1,0,7.58,7.58,7.589,7.589,0,0,0-7.58-7.58" transform="translate(-22.36 -4.959)"/><path d="M182.475,47.286a7.951,7.951,0,1,1-7.952-7.952,7.952,7.952,0,0,1,7.952,7.952" transform="translate(-25.378 -5.993)"/><path d="M185.474,58.082a5.572,5.572,0,1,1-7.393-2.726,5.572,5.572,0,0,1,7.393,2.726" transform="translate(-26.638 -8.356)" fill="#fff"/><path d="M180.7,62.881a.6.6,0,0,1-.116-.011.618.618,0,0,1-.492-.723l.656-3.447a.618.618,0,1,1,1.215.231l-.657,3.447a.617.617,0,0,1-.606.5" transform="translate(-27.437 -8.867)"/><path d="M152.968,59a.618.618,0,0,1-.114-1.226l13.63-2.586a.618.618,0,1,1,.231,1.214l-13.63,2.587a.6.6,0,0,1-.116.011" transform="translate(-23.212 -8.406)" fill="#4ce0b3"/><path d="M169.654,68.164a6.6,6.6,0,1,1,1.571-.191,6.608,6.608,0,0,1-1.571.191m.009-11.959a5.365,5.365,0,1,0,2.768.778,5.37,5.37,0,0,0-2.768-.778" transform="translate(-24.843 -8.375)" fill="#4ce0b3"/><path d="M153.573,71.217a6.6,6.6,0,1,1,1.572-.191,6.608,6.608,0,0,1-1.572.191m0-11.957a5.36,5.36,0,1,0,5.205,4.084,5.338,5.338,0,0,0-5.205-4.084" transform="translate(-22.393 -8.84)" fill="#4ce0b3"/><path d="M162.676,70.438a.618.618,0,0,1-.612-.538l-1.129-8.676a.618.618,0,1,1,1.225-.159l1.13,8.676a.618.618,0,0,1-.533.693.651.651,0,0,1-.081.005" transform="translate(-24.519 -9.222)"/><path d="M162.074,74.6a.618.618,0,0,1-.092-1.229l2.712-.412a.618.618,0,0,1,.186,1.222l-2.712.412a.691.691,0,0,1-.093.007" transform="translate(-24.599 -11.115)"/></g></g></svg>