<svg xmlns="http://www.w3.org/2000/svg" xmlns:xlink="http://www.w3.org/1999/xlink" width="1111.577" height="1096.219" viewBox="0 0 1111.577 1096.219"><defs><clipPath id="a"><rect width="884" height="746.177" fill="none"/></clipPath><clipPath id="b"><rect width="820.955" height="851.26" fill="none" stroke="#4ce0b3" stroke-width="2"/></clipPath></defs><g transform="translate(197.217 -594.5)"><g transform="translate(-70 769.521)"><g clip-path="url(#a)"><path d="M211.3,553.453C43,439.245-49.615,182.733,159.974,45.776,202.288,18.127,269.6,6.82,319.98,14.578c58.816,9.053,94.521,49.439,141.9,80.2,69.2,44.929,151.787,9.239,221.5,56.181C741.8,190.3,791.011,254.061,797.088,322.541,807.2,436.5,758.511,545.825,649.32,594.586c-49.036,21.9-127.638,24.734-178.394,29.417-80.3,7.41-194.222-26.166-259.629-70.551" transform="translate(85.608 26.773)" fill="#f18f01"/><path d="M209.287,123.052a65.371,65.371,0,1,1-65.369-65.369,65.37,65.37,0,0,1,65.369,65.369" transform="translate(172.552 126.721)"/><path d="M340.374,208.573l-228.613-8.085C71.4,213.681,56.89,259.419,51.513,303.58l305.635,0Z" transform="translate(113.166 440.442)"/><path d="M358.626,307.213H52.994a2.152,2.152,0,0,1-2.139-2.414c7.228-59.359,27.416-93.668,61.715-104.879a2.344,2.344,0,0,1,.745-.106L341.929,207.9a2.153,2.153,0,0,1,2.046,1.777l16.771,95.01a2.149,2.149,0,0,1-2.119,2.526M55.434,302.907H356.059l-16.023-90.765-226.487-8.008c-31.869,10.613-50.9,42.943-58.116,98.773" transform="translate(111.688 438.964)"/><path d="M702.082,332.467c2.644-114.582-.387-258.951.348-234.662L574.281,94.666s5.281,121.276-20.118,133.155c-21.441,10.029-46.91-21.5-67.22-42.221-35.629-36.361-60.3-51.441-139.057-49.136,0,0-44.587-8.174-134.572,8.756C81.905,169.949,53.108,290.531,15.743,369.384c-54.551,115.125,47.85,195.721,161,101.174v13.951l283.65-1.228L440.845,362.038c90.4,135.355,257.075,150.447,261.237-29.571" transform="translate(1.414 207.967)" fill="#fff"/><path d="M81.153,515.8c-19.328,0-37.016-5.614-50.849-16.317-33.992-26.3-39.916-77.153-15.092-129.54,5.764-12.158,11.272-25.2,17.1-39C47.9,294.045,65.565,252.23,93.023,217.695c31.626-39.785,71.306-63.7,121.308-73.109,86.008-16.182,131.445-9.4,135.118-8.795,80.334-2.324,105.579,14.2,140.447,49.781,2.558,2.612,5.195,5.39,7.9,8.238,18.532,19.523,39.535,41.652,56.875,33.541C574.434,218.107,575,129.573,573.545,96.24a2.155,2.155,0,0,1,2.206-2.247l125.86,3.088,0-.061c0-.089-.006-.153-.013-.2h.026c.125-1.79.582-2.359,2.068-2.388s1.988.707,2.171,2.3l.019,0,0,.141c.067.649.09,1.426.118,2.343a2.127,2.127,0,0,1-.1.713c.022,2.324.064,5.745.112,9.8.4,34.238,1.624,138.424-.361,224.266-1.64,70.964-28.51,117.59-75.663,131.3-28.628,8.318-63.068,3.19-96.973-14.443-32.643-16.978-62.607-43.931-87.108-78.269l18.027,111.836a2.152,2.152,0,0,1-2.116,2.5l-283.654,1.228a2.027,2.027,0,0,1-1.528-.63A2.148,2.148,0,0,1,176,485.99v-9.4c-26.607,21.416-54.362,34.6-80.51,38.206a104.7,104.7,0,0,1-14.338,1M316.94,138.166c-22.327,0-56.3,2.091-101.813,10.652C105.187,169.508,68.58,256.159,36.282,332.612c-5.85,13.852-11.378,26.933-17.177,39.174C-4.817,422.271.615,471.058,32.941,496.073c35.667,27.6,92.124,17.519,143.83-25.687a2.155,2.155,0,0,1,3.536,1.653v11.79l278.973-1.208-19.146-118.76a2.153,2.153,0,0,1,3.916-1.538c25.044,37.5,56.492,66.789,90.947,84.707,32.918,17.122,66.226,22.138,93.786,14.13,45.2-13.139,70.967-58.333,72.559-127.26l2.155.048-2.155-.048c1.982-85.765.761-189.9.361-224.115-.042-3.433-.073-6.256-.1-8.4L577.941,98.356c.761,20.1,3.325,121.311-21.451,132.9-20.153,9.428-42.291-13.9-61.821-34.478-2.685-2.829-5.307-5.591-7.848-8.187C452.042,153.1,428.529,137.776,349.366,140.1a2.112,2.112,0,0,1-.451-.035c-.214-.038-10.914-1.9-31.975-1.9" transform="translate(-0.001 206.486)"/><path d="M180.01,169.131c-58.486,0-112.283-51.092-112.855-51.639a2.154,2.154,0,0,1,2.986-3.1c.595.569,59.855,56.831,120.39,49.839,59.9-6.9,69.637-52.556,70.024-54.5a2.154,2.154,0,0,1,4.226.831c-.1.505-10.642,50.67-73.758,57.946a95.919,95.919,0,0,1-11.013.623" transform="translate(146.079 237.25)"/><path d="M155.651,70.123a2.15,2.15,0,0,1-1.522-.63L124.258,39.622a2.153,2.153,0,1,1,3.047-3.043l29.868,29.868a2.153,2.153,0,0,1-1.522,3.676" transform="translate(271.592 78.972)"/><path d="M125.781,70.123a2.153,2.153,0,0,1-1.522-3.676l29.868-29.868a2.153,2.153,0,1,1,3.047,3.043L127.3,69.493a2.15,2.15,0,0,1-1.522.63" transform="translate(271.594 78.972)"/><path d="M145.84,240.676a2.154,2.154,0,0,1-1.237-3.919,53.485,53.485,0,0,0-10.2-93.291,2.154,2.154,0,1,1,1.646-3.98,57.8,57.8,0,0,1,11.026,100.8,2.139,2.139,0,0,1-1.231.387" transform="translate(292.33 306.066)"/><path d="M135.228,161.267a2.153,2.153,0,0,1-2.155-2.151l-.006-25.664a2.155,2.155,0,0,1,4.309,0l0,25.664a2.153,2.153,0,0,1-2.151,2.155" transform="translate(292.329 288.438)"/><path d="M147.572,230.024a2.154,2.154,0,0,1-2.123-1.81l-9.034-56.044a2.153,2.153,0,1,1,4.252-.684l9.034,56.041A2.158,2.158,0,0,1,147.917,230a2.519,2.519,0,0,1-.345.026" transform="translate(299.62 372.749)"/><path d="M180.169,89A55.531,55.531,0,1,1,124.64,33.469,55.53,55.53,0,0,1,180.169,89" transform="translate(151.818 73.526)"/><path d="M127.377,145.824A57.684,57.684,0,1,1,185.061,88.14a57.749,57.749,0,0,1-57.684,57.684m0-111.062A53.378,53.378,0,1,0,180.755,88.14a53.437,53.437,0,0,0-53.378-53.378" transform="translate(153.105 66.907)"/><path d="M85.954,215.4l8.037-52.838c28.916-9.456,13.456-44.363,13.456-44.363,30.843.262,41.556-30.415,46.147-47.265a7.745,7.745,0,0,1,10.793-4.974c9.085,4.322,22.234,11.64,23.775,21.806,7.212,47.588,21.726,94.464-29.446,98.652V215.4Z" transform="translate(188.828 143.261)" fill="#fff"/><path d="M87.973,140.868a1.867,1.867,0,0,1-.326-.026,2.153,2.153,0,0,1-1.806-2.452l6.323-41.569a2.154,2.154,0,1,1,4.258.649L90.1,139.039a2.155,2.155,0,0,1-2.126,1.829" transform="translate(188.526 208.682)"/><path d="M110.195,206.4a2.154,2.154,0,0,1-2.155-2.155V182.171a2.155,2.155,0,0,1,1.979-2.148c13.251-1.084,22.4-5.1,27.969-12.263,11.189-14.392,6.793-40.379,2.139-67.895-.876-5.188-1.784-10.55-2.593-15.879a53.305,53.305,0,0,0-6.586-13.468,2.152,2.152,0,1,1,3.552-2.433,56.354,56.354,0,0,1,7.212,14.843,1.876,1.876,0,0,1,.058.265c.809,5.342,1.72,10.735,2.605,15.952,4.815,28.474,9.364,55.37-2.986,71.258-6.061,7.8-15.572,12.3-29.04,13.727v20.115a2.154,2.154,0,0,1-2.155,2.155" transform="translate(237.348 147.514)"/><path d="M127.914,109.641a82.481,82.481,0,0,1-26.54-4.329,2.152,2.152,0,1,1,1.509-4.031,79.874,79.874,0,0,0,25.031,4.054,2.153,2.153,0,1,1,0,4.306" transform="translate(219.629 222.196)"/><path d="M127.842,125.012s-8.545,7.436-17.186,1.407S100.007,101.5,100.007,101.5l27.835,5.2Z" transform="translate(219.701 222.985)"/><path d="M121.913,109.739a2.157,2.157,0,0,1-2.056-1.509l-8.734-27.979a2.152,2.152,0,1,1,4.108-1.282l8.737,27.972a2.148,2.148,0,0,1-2.055,2.8" transform="translate(243.906 170.161)"/><path d="M83.009,91.878a2.154,2.154,0,0,1-.873-4.124l68.2-30.194a2.153,2.153,0,0,1,1.742,3.939l-68.2,30.194a2.149,2.149,0,0,1-.87.185" transform="translate(177.624 126.042)" fill="#4ce0b3"/><path d="M342.211,323.321H111.558a28.775,28.775,0,0,1-28.775-28.775V162.606a28.775,28.775,0,0,1,28.775-28.775H342.211a28.775,28.775,0,0,1,28.775,28.775v131.94a28.775,28.775,0,0,1-28.775,28.775" transform="translate(181.862 294.007)"/><path d="M166.669,179.274a23,23,0,1,1-23-23,23,23,0,0,1,23,23" transform="translate(265.079 343.309)" fill="#fff"/><path d="M15.531,207.033a2.153,2.153,0,0,1-.933-4.1c62.3-29.916,133.229-37.873,133.939-37.95a2.155,2.155,0,1,1,.467,4.284c-.7.077-70.925,7.96-132.541,37.547a2.105,2.105,0,0,1-.93.214" transform="translate(29.382 362.425)"/><path d="M57.209,240.008a2.153,2.153,0,0,1-1.26-3.9L104.7,201a2.154,2.154,0,1,1,2.519,3.494L58.466,239.6a2.139,2.139,0,0,1-1.256.406" transform="translate(120.945 440.673)"/><path d="M57.208,243.269a2.154,2.154,0,0,1-2.155-2.155V133.447a2.155,2.155,0,0,1,4.309,0V241.114a2.154,2.154,0,0,1-2.155,2.155" transform="translate(120.943 288.438)"/><path d="M268.022,12.17A57,57,0,1,1,188,21.8a56.994,56.994,0,0,1,80.027-9.629" transform="translate(386.262 0)" fill="#f18f01"/><path d="M202.17,57.513,329.1,62.232,318.229,198.91a63.482,63.482,0,0,1-126.356,2.158c-2.4-20.751-6.371-42.684-12.941-59.286C161.765,98.41,202.17,57.513,202.17,57.513" transform="translate(383.755 126.348)" fill="#fff"/><path d="M256.265,261A65.694,65.694,0,0,1,191.183,202.8c-2.858-24.737-7.167-44.5-12.8-58.739C160.9,99.886,201.675,57.9,202.088,57.48a2.19,2.19,0,0,1,1.611-.639l126.934,4.719a2.155,2.155,0,0,1,2.065,2.324L321.826,200.561a65.828,65.828,0,0,1-57.639,59.967,66.751,66.751,0,0,1-7.922.473M204.517,61.182c-5.013,5.438-37.4,42.713-22.132,81.29,5.774,14.587,10.172,34.718,13.078,59.829a61.328,61.328,0,0,0,122.069-2.081l10.7-134.44Z" transform="translate(382.307 124.869)"/><path d="M285.816,156.589l5.761-91.35s-121.4,17.64-161.508,25.53c-9.2,1.809-15.927,10.332-15.927,20.118a20.42,20.42,0,0,0,16.182,20.182c38.679,7.468,155.492,25.521,155.492,25.521" transform="translate(250.753 143.32)" fill="#0095eb"/><path d="M434.313,52.081l0-.051h-2.055c-6.908,0-224.723,25.869-227.657,26.425l-.08.01v0a62.56,62.56,0,0,0,11.809,124c1.244,0,206.974,24.916,210.557,25.13l.185.026v-.01c1.717.1,3.443.163,5.185.163a87.858,87.858,0,0,0,2.052-175.693" transform="translate(337.81 114.302)" fill="#0095eb"/><path d="M302.75,231.409a90.027,90.027,0,1,1,90.027-90.027,90.129,90.129,0,0,1-90.027,90.027m0-175.747a85.72,85.72,0,1,0,85.72,85.72,85.819,85.819,0,0,0-85.72-85.72" transform="translate(467.321 112.822)"/><path d="M365.325,130.2a73.756,73.756,0,1,1-73.761-73.755A73.76,73.76,0,0,1,365.325,130.2" transform="translate(478.503 124.004)" fill="#fff"/><path d="M217.811,188.7a64.715,64.715,0,0,1,0-129.431,2.156,2.156,0,0,1,0,4.313,60.408,60.408,0,0,0,0,120.815,2.151,2.151,0,1,1,0,4.3" transform="translate(336.332 130.214)"/><path d="M329.538,65.017C312.668,48.137,292.17,44,271.3,55.276c-17.586-11.483-33.02,2.334-33.02,2.334s-7.714-4.127-16.192-1.292c-6.963,2.327-8.44,3.977-14.312,8.11-17.746-6.036-36.15,17.429-34.309,33.014.869,7.359,6.806,9.744,13.753,8.852A20.658,20.658,0,0,0,200.6,98.814a12.748,12.748,0,0,0,9.3,10.387c7.247,2.049,13.686-1.451,17.765-7,1.656,5.933,8.756,9.191,15.415,8.117,10.409-1.678,16.473-10.454,20.9-19.344,2.551,5.013,11.2,6.493,16.844,4.223,10.658-4.284,20.054-15.5,25.066-26.01,7.465-.595,23.641-4.172,23.641-4.172" transform="translate(380.803 107.537)" fill="#fff"/><path d="M241.956,114.165c-5.569,0-10.661-2.532-13.337-6.544-4.952,5.032-11.416,6.944-17.823,5.131a14.952,14.952,0,0,1-9.741-8.318,22.7,22.7,0,0,1-12.084,5.476c-4.85.627-8.945-.237-11.838-2.494a11.738,11.738,0,0,1-4.325-8.241c-1.154-9.747,4.853-22.362,14.284-29.99,6.988-5.658,14.677-7.64,21.783-5.649.674-.48,1.288-.924,1.861-1.339a36.707,36.707,0,0,1,12.145-6.442,24.24,24.24,0,0,1,16.579.831c3.983-2.957,17.9-11.64,33.41-2.311,20.859-10.751,42.007-6.972,59.669,10.7a2.154,2.154,0,0,1-1.058,3.625c-.633.141-14.821,3.267-22.707,4.1-4.7,9.312-13.993,21.288-25.661,25.974-5.307,2.129-12.934,1.368-17.244-2.334-4.249,7.781-10.473,15.895-20.965,17.586a18.528,18.528,0,0,1-2.948.237m-12.813-12.634a1.979,1.979,0,0,1,.387.035,2.153,2.153,0,0,1,1.688,1.538c1.276,4.575,7.113,7.522,13,6.573,9.885-1.6,15.514-10.553,19.319-18.18a2.147,2.147,0,0,1,1.918-1.192h.006a2.154,2.154,0,0,1,1.921,1.176c2.017,3.967,9.453,5.077,14.124,3.2,10.981-4.412,19.75-16.192,23.922-24.935a2.149,2.149,0,0,1,1.771-1.218c4.981-.4,14.1-2.19,19.351-3.28-15.895-14.095-34.491-16.461-52.751-6.6a2.148,2.148,0,0,1-2.2-.093c-15.946-10.412-29.827,1.621-30.408,2.139a2.16,2.16,0,0,1-2.449.291c-.064-.032-7.043-3.638-14.495-1.148a32.873,32.873,0,0,0-10.984,5.844c-.825.595-1.73,1.253-2.772,1.985a2.161,2.161,0,0,1-1.934.278c-8.021-2.727-15.195,1.7-18.759,4.584-8.222,6.656-13.692,17.893-12.717,26.137a7.6,7.6,0,0,0,2.7,5.352c2.481,1.934,6.064,1.95,8.638,1.618a18.593,18.593,0,0,0,11.995-6.713,2.153,2.153,0,0,1,3.791,1.049,10.589,10.589,0,0,0,7.759,8.635c5.646,1.6,11.416-.723,15.441-6.2a2.161,2.161,0,0,1,1.736-.876" transform="translate(379.323 106.056)"/><path d="M183.349,91.811a2.3,2.3,0,0,1-.441-.045,2.155,2.155,0,0,1-1.669-2.548l7.174-34.385a2.154,2.154,0,1,1,4.217.879L185.456,90.1a2.156,2.156,0,0,1-2.107,1.714" transform="translate(398.056 116.691)"/><path d="M191.816,99.885a2.091,2.091,0,0,1-.5-.061,2.152,2.152,0,0,1-1.6-2.593l10.617-44.593a2.153,2.153,0,0,1,4.188,1L193.906,98.229a2.148,2.148,0,0,1-2.091,1.656" transform="translate(416.654 112.008)"/><path d="M203.178,90.263a2.257,2.257,0,0,1-.435-.045,2.156,2.156,0,0,1-1.678-2.542l7.314-35.7a2.154,2.154,0,1,1,4.22.863l-7.314,35.7a2.155,2.155,0,0,1-2.107,1.72" transform="translate(441.614 110.403)"/><path d="M297.949,176.848c-.9-43.426-35.252-59.682-46.194-64.2a39.678,39.678,0,0,0-15.278-2.986,61.577,61.577,0,0,0-8.619,1.423s-4.543-5.649-5.412-7.145C215.186,91.406,188.2,52.7,171.354,78.788c-8.126,12.586,5.815,31.192,11.224,43.308,6.675,14.958,19.654,55.251,22.615,55.369,9.408.374,22.544,1.8,37.6,2.18,36.847.937,55.152-2.8,55.152-2.8" transform="translate(370.979 153.652)" fill="#fff"/><path d="M206.671,181.1a2.155,2.155,0,0,1-2.059-1.531c-.732-2.094-16.1-40.731-22.522-55.114-1.112-2.5-2.625-5.323-4.223-8.315-6.208-11.608-13.935-26.054-6.841-37.039,4.306-6.672,9.629-10.006,15.831-9.827,18.359.444,36.882,31.527,38.934,35.069.486.841,2.689,3.689,4.393,5.831a50.263,50.263,0,0,1,7.765-1.183,43.071,43.071,0,0,1,16.109,3.149c17.388,7.171,46.68,25.3,47.524,66.143a2.149,2.149,0,0,1-2.107,2.2,2.106,2.106,0,0,1-2.2-2.107c-.793-38.394-28.449-55.481-44.862-62.249a38.824,38.824,0,0,0-14.443-2.823,57.089,57.089,0,0,0-8.149,1.365,2.157,2.157,0,0,1-2.161-.748c-.476-.591-4.674-5.821-5.6-7.417-6.515-11.25-22.279-32.608-35.309-32.924-4.69-.109-8.625,2.458-12.11,7.858-5.719,8.855,1.343,22.062,7.02,32.675,1.637,3.059,3.184,5.953,4.36,8.59,6.3,14.127,22.532,54.807,22.749,55.772a2.153,2.153,0,0,1-1.627,2.573,2.036,2.036,0,0,1-.476.054" transform="translate(369.498 152.171)"/><path d="M87.722,96.877a19.416,19.416,0,1,0,19.414-19.418A19.417,19.417,0,0,0,87.722,96.877" transform="translate(192.712 170.166)" fill="#fff"/><path d="M101.278,95.094a2.156,2.156,0,0,1-1.755-.9L92.416,84.24a2.153,2.153,0,1,1,3.5-2.5l7.11,9.952a2.153,2.153,0,0,1-1.752,3.4" transform="translate(202.141 177.582)"/><path d="M103.9,83.41a4.356,4.356,0,1,0,4.354-4.354A4.355,4.355,0,0,0,103.9,83.41" transform="translate(228.257 173.674)"/><path d="M124.312,93.239H114.025a2.153,2.153,0,1,1,0-4.306h10.287a2.153,2.153,0,1,1,0,4.306" transform="translate(245.762 195.373)"/><path d="M268.347,184.831A28.952,28.952,0,1,1,297.3,155.881a28.984,28.984,0,0,1-28.954,28.951m0-53.6a24.646,24.646,0,1,0,24.648,24.648,24.675,24.675,0,0,0-24.648-24.648" transform="translate(525.911 278.84)"/><path d="M268.729,66.912a40.479,40.479,0,1,0,40.479,40.479H268.729Z" transform="translate(501.434 146.996)"/><path d="M244.147,63.846v40.479h40.479a40.479,40.479,0,0,0-40.479-40.479" transform="translate(536.355 140.26)" fill="#0095eb"/><path d="M232.6,207.7c18.519-4.373,33.624-12.781,32.173-22.426-1.634-10.853-15.233-14.629-26.064-13.635s-48.3,5.284-48.3,5.284,44.772-30.325,34.916-41.962-36.035-.566-46.179,5.1c-18.344,10.24-56.3,37.406-65.641,52.476s.738,41.882.738,41.882L87.42,242.56a61.8,61.8,0,1,0,40.6,116.64q5.356-2.105,11.294-4.466c62.4-24.792,41.431-63.333,41.431-63.333,16.62-7.727,68.08-6.627,66.36-29.689-1-13.369-9.338-15.77-16.176-15.428,14.165-3.558,33.794-11.333,31.332-26.972-2.174-13.791-19.6-13.168-29.657-11.614" transform="translate(95.699 285.247)" fill="#fff"/><path d="M106.848,367.126A63.949,63.949,0,0,1,88.255,241.985l24.689-7.5c-2.235-6.87-8.1-28.212.2-41.6,9.9-15.975,49.072-43.538,66.424-53.224,1.464-.815,35.981-19.824,48.87-4.6a8.29,8.29,0,0,1,1.829,6.761c-1.467,10.681-19.891,25.738-30.36,33.513,11.7-1.324,32.5-3.654,40.073-4.348,12.768-1.176,26.63,3.756,28.391,15.457,1.285,8.532-7.481,15.393-18.951,20.134,9.491,1.282,15.188,6,16.432,13.89,1.813,11.525-6.506,20.7-24.155,26.8,4.415,2.1,8.331,6.589,9.018,15.773,1.333,17.854-24.513,22.567-45.283,26.352-7.851,1.432-15.323,2.794-20.342,4.639a38.445,38.445,0,0,1,.364,27.192c-5.486,15.163-20.252,27.611-43.88,37q-5.951,2.364-11.3,4.469a63.911,63.911,0,0,1-23.42,4.437M213.476,133.491c-11.1,0-25.463,6.384-31.815,9.93-17.679,9.865-55.731,37-64.861,51.731-8.679,14.005.828,39.731.924,39.986a2.153,2.153,0,0,1-1.391,2.82l-26.828,8.149a59.649,59.649,0,1,0,39.184,112.577q5.351-2.11,11.288-4.466c22.391-8.9,36.316-20.463,41.393-34.382a34.164,34.164,0,0,0-1.061-25.923,2.16,2.16,0,0,1,.988-2.979c5.393-2.506,14.121-4.1,23.356-5.78,20.067-3.657,42.806-7.8,41.76-21.8-.707-9.472-5.265-13.868-13.919-13.436a2.153,2.153,0,0,1-.633-4.239c14.744-3.705,31.869-10.972,29.731-24.549-1.877-11.915-17.848-11.269-27.2-9.821a2.154,2.154,0,0,1-.822-4.226c19.379-4.575,31.652-12.615,30.54-20.006-1.349-8.964-13.229-12.771-23.737-11.812-10.681.981-47.879,5.236-48.253,5.278a2.154,2.154,0,0,1-1.455-3.923c9.348-6.33,33.909-25.028,35.332-35.392a4.064,4.064,0,0,0-.847-3.4c-2.666-3.146-6.864-4.345-11.672-4.345" transform="translate(94.237 283.762)"/><path d="M83.489,218.441a2.156,2.156,0,0,1-2.056-1.512l-16.991-54.35a2.154,2.154,0,1,1,4.111-1.285l16.991,54.35a2.156,2.156,0,0,1-2.056,2.8" transform="translate(141.352 351.018)"/><path d="M81.979,182.922a2.154,2.154,0,0,1-.364-4.277l77.057-13.331a2.154,2.154,0,0,1,.735,4.245L82.35,182.89a2.093,2.093,0,0,1-.371.032" transform="translate(175.371 363.1)"/><path d="M81.1,171.4a2.155,2.155,0,0,1-.364-4.277L160.7,153.291a2.153,2.153,0,1,1,.735,4.242L81.471,171.372a2.1,2.1,0,0,1-.371.032" transform="translate(173.44 336.684)"/><path d="M80.024,155.982a2.153,2.153,0,0,1-.464-4.255l35.012-7.778a2.153,2.153,0,0,1,.934,4.2l-35.012,7.778a2.162,2.162,0,0,1-.47.051" transform="translate(171.073 316.119)"/></g></g><g transform="translate(-197.217 1344.48) rotate(-66)"><g transform="translate(0 0)" clip-path="url(#b)"><path d="M469.411,852.259a542.041,542.041,0,0,1-90.3-7.771,562.508,562.508,0,0,1-84.942-21.3,521.138,521.138,0,0,1-81.044-35,452.9,452.9,0,0,1-73.1-48.871,403.316,403.316,0,0,1-32.3-29.691,376.074,376.074,0,0,1-28.79-33.222c-1.147-1.494-2.273-2.983-3.347-4.427a365.4,365.4,0,0,1-44.565-79.459,424.391,424.391,0,0,1-25.188-88.23A474.762,474.762,0,0,1,10.08,322.07a606.441,606.441,0,0,1,19.6-69.355c4.051-11.552,8.474-22.884,13.146-33.682,4.85-11.212,10.1-22.153,15.607-32.522,5.707-10.747,11.844-21.173,18.242-30.988,6.621-10.158,13.7-19.942,21.049-29.08a331.15,331.15,0,0,1,24.028-26.8,310.493,310.493,0,0,1,27.18-24.137c28.879-22.734,64.1-41.849,101.86-55.276A378.172,378.172,0,0,1,309.038,4.573,330.337,330.337,0,0,1,368.451-1a273.386,273.386,0,0,1,46.231,3.827,227.3,227.3,0,0,1,43.8,12.023,162.184,162.184,0,0,1,31.776,16.59,157.09,157.09,0,0,1,47.809,50.938,165.113,165.113,0,0,1,14.676,32.842,222.411,222.411,0,0,1,7.061,29.24c1.762,9.863,3.106,19.991,4.406,29.785,1.507,11.354,3.065,23.095,5.282,34.483a133.065,133.065,0,0,0,12.277,35.452,144.349,144.349,0,0,0,9.355,15.67,162.443,162.443,0,0,0,11.161,14.426,206.645,206.645,0,0,0,26.712,25.488,301.666,301.666,0,0,0,30.843,21.6c5.547,3.427,11.168,6.833,16.6,10.127C696.27,343.509,715,354.86,732.568,368.374A240.654,240.654,0,0,1,757.654,390.4a190.481,190.481,0,0,1,21.92,26.589,240.476,240.476,0,0,1,18.084,31.452,248.875,248.875,0,0,1,21.4,69.207,245.291,245.291,0,0,1,2.9,36.161,264.132,264.132,0,0,1-12.416,81.383A279.763,279.763,0,0,1,774.151,707.7a305.562,305.562,0,0,1-54.23,60.405A322.854,322.854,0,0,1,650.958,813.2a365.42,365.42,0,0,1-43.3,17.625A397.688,397.688,0,0,1,562.6,842.969,437.889,437.889,0,0,1,516.331,850C501.042,851.5,485.256,852.259,469.411,852.259ZM368.451,1A328.342,328.342,0,0,0,309.4,6.54a376.19,376.19,0,0,0-57.94,15.578C213.9,35.474,178.877,54.48,150.166,77.082a308.457,308.457,0,0,0-27,23.981A329.145,329.145,0,0,0,99.28,127.7c-7.305,9.087-14.348,18.817-20.932,28.919-6.365,9.765-12.472,20.139-18.151,30.834-5.481,10.321-10.709,21.215-15.538,32.378-4.653,10.755-9.058,22.043-13.094,33.55A604.455,604.455,0,0,0,12.032,322.5,472.745,472.745,0,0,0,7.807,503.951a422.4,422.4,0,0,0,25.068,87.813A363.394,363.394,0,0,0,77.2,670.788c1.068,1.436,2.188,2.917,3.329,4.4a374.061,374.061,0,0,0,28.636,33.045,401.32,401.32,0,0,0,32.14,29.543,450.884,450.884,0,0,0,72.774,48.653A519.12,519.12,0,0,0,294.807,821.3a560.541,560.541,0,0,0,84.639,21.22,540.051,540.051,0,0,0,89.964,7.743,456.3,456.3,0,0,0,92.782-9.247,395.716,395.716,0,0,0,44.835-12.086A363.428,363.428,0,0,0,650.085,811.4a320.847,320.847,0,0,0,68.536-44.811A303.563,303.563,0,0,0,772.5,706.577a277.769,277.769,0,0,0,35.133-71.989,262.136,262.136,0,0,0,12.322-80.767,243.271,243.271,0,0,0-2.874-35.865,246.862,246.862,0,0,0-21.224-68.649,238.447,238.447,0,0,0-17.933-31.19A188.507,188.507,0,0,0,756.228,391.8a238.687,238.687,0,0,0-24.88-21.845C713.87,356.513,695.185,345.19,675.4,333.2c-5.439-3.3-11.064-6.7-16.618-10.136a303.657,303.657,0,0,1-31.045-21.744c-5-4.023-9.754-8.168-14.126-12.322-4.6-4.367-8.919-8.881-12.845-13.416a164.426,164.426,0,0,1-11.3-14.6,146.377,146.377,0,0,1-9.485-15.888,135.056,135.056,0,0,1-12.461-35.982c-2.229-11.448-3.791-23.219-5.3-34.6-1.3-9.772-2.638-19.877-4.392-29.7a220.421,220.421,0,0,0-7-28.978,163.108,163.108,0,0,0-14.5-32.444,155.086,155.086,0,0,0-47.2-50.291,160.186,160.186,0,0,0-31.383-16.385A225.3,225.3,0,0,0,414.342,4.8,271.38,271.38,0,0,0,368.451,1Z" transform="translate(0 0.001)" fill="#4ce0b3"/></g></g></g></svg>