<svg xmlns="http://www.w3.org/2000/svg" xmlns:xlink="http://www.w3.org/1999/xlink" width="234.392" height="197.848" viewBox="0 0 234.392 197.848"><defs><clipPath id="a"><rect width="234.392" height="197.848" fill="none"/></clipPath></defs><g clip-path="url(#a)"><path d="M84.661,155.7c-44.624-30.282-69.18-98.3-13.608-134.61,11.219-7.331,29.067-10.329,42.425-8.272,15.595,2.4,25.062,13.109,37.625,21.266,18.348,11.913,40.246,2.45,58.731,14.9,15.491,10.43,28.538,27.336,30.149,45.494,2.682,30.216-10.229,59.2-39.181,72.133-13,5.806-33.843,6.558-47.3,7.8-21.293,1.965-51.5-6.938-68.84-18.707" transform="translate(-5.937 -1.857)" fill="#f18f01"/><path d="M113.211,75.016A17.333,17.333,0,1,1,95.878,57.683a17.333,17.333,0,0,1,17.333,17.333" transform="translate(-11.967 -8.788)"/><path d="M128.1,202.632l-60.617-2.144c-10.7,3.5-14.549,15.625-15.975,27.335h81.039Z" transform="translate(-7.848 -30.546)"/><path d="M132.449,228.292H51.411a.57.57,0,0,1-.567-.64c1.917-15.739,7.269-24.836,16.364-27.809a.621.621,0,0,1,.2-.028l60.617,2.144a.571.571,0,0,1,.542.471l4.447,25.192a.57.57,0,0,1-.562.67M52.058,227.15h79.711l-4.248-24.066L67.467,200.96c-8.45,2.814-13.5,11.386-15.409,26.19" transform="translate(-7.746 -30.443)"/><path d="M186.63,157.719c.7-30.381-.1-68.661.092-62.22l-33.979-.832s1.4,32.156-5.334,35.306c-5.685,2.659-12.438-5.7-17.823-11.195-9.447-9.641-15.988-13.639-36.871-13.028,0,0-11.822-2.167-35.682,2.322C22.19,114.627,14.555,146.6,4.647,167.507c-14.464,30.525,12.688,51.9,42.688,26.826v3.7l75.21-.326-5.182-32.148c23.969,35.889,68.163,39.891,69.267-7.841" transform="translate(-0.098 -14.423)" fill="#fff"/><path d="M21.517,205.833a21.809,21.809,0,0,1-13.483-4.326c-9.013-6.974-10.584-20.457-4-34.347,1.528-3.224,2.989-6.681,4.535-10.342,4.132-9.782,8.816-20.869,16.1-30.026a51.71,51.71,0,0,1,32.165-19.385c22.8-4.291,34.853-2.492,35.826-2.332,21.3-.616,27.994,3.764,37.239,13.2.678.693,1.377,1.429,2.094,2.184,4.914,5.177,10.483,11.044,15.08,8.893,5.241-2.451,5.39-25.926,5.005-34.764a.571.571,0,0,1,.585-.6l33.372.819v-.016c0-.024,0-.041,0-.053h.007c.033-.475.154-.626.548-.633s.527.187.576.61h.005v.037c.018.172.024.378.031.621a.564.564,0,0,1-.027.189c.006.616.017,1.523.03,2.6.106,9.078.431,36.7-.1,59.464-.435,18.816-7.559,31.179-20.062,34.814-7.591,2.206-16.722.846-25.712-3.83-8.655-4.5-16.6-11.648-23.1-20.753l4.78,29.653a.571.571,0,0,1-.561.662l-75.211.326a.537.537,0,0,1-.405-.167.57.57,0,0,1-.168-.4v-2.492c-7.055,5.678-14.414,9.174-21.347,10.13a27.761,27.761,0,0,1-3.8.265M84.036,105.7a147.429,147.429,0,0,0-27,2.824C27.89,114.015,18.184,136.99,9.62,157.262,8.069,160.935,6.6,164.4,5.065,167.649c-6.343,13.386-4.9,26.322,3.669,32.955,9.457,7.319,24.427,4.645,38.136-6.811a.571.571,0,0,1,.937.438v3.126l73.97-.32L116.7,165.547a.571.571,0,0,1,1.038-.408c6.64,9.942,14.979,17.709,24.115,22.46,8.728,4.54,17.56,5.87,24.867,3.747,11.984-3.484,18.817-15.467,19.239-33.743l.571.013-.571-.013c.526-22.741.2-50.351.1-59.424-.011-.91-.019-1.659-.025-2.227l-32.79-.8c.2,5.33.882,32.165-5.688,35.237-5.344,2.5-11.213-3.686-16.392-9.142-.712-.75-1.407-1.483-2.081-2.171-9.222-9.411-15.456-13.472-36.446-12.856a.56.56,0,0,1-.12-.009,54.378,54.378,0,0,0-8.478-.5" transform="translate(0 -14.32)"/><path d="M96.593,124.205c-15.508,0-29.772-13.547-29.923-13.692a.571.571,0,0,1,.792-.823c.158.151,15.87,15.069,31.921,13.215,15.881-1.83,18.464-13.935,18.567-14.45a.571.571,0,0,1,1.121.22c-.027.134-2.822,13.435-19.557,15.364a25.432,25.432,0,0,1-2.92.165" transform="translate(-10.131 -16.454)"/><path d="M132.119,45.009a.57.57,0,0,1-.4-.167l-7.92-7.92a.571.571,0,0,1,.808-.807l7.92,7.92a.571.571,0,0,1-.4.975" transform="translate(-18.836 -5.477)"/><path d="M124.2,45.009a.571.571,0,0,1-.4-.975l7.92-7.92a.571.571,0,0,1,.808.807l-7.92,7.92a.57.57,0,0,1-.4.167" transform="translate(-18.836 -5.477)"/><path d="M136.454,166.195a.571.571,0,0,1-.328-1.039,14.182,14.182,0,0,0-2.706-24.736.571.571,0,0,1,.437-1.055,15.324,15.324,0,0,1,2.924,26.728.567.567,0,0,1-.326.1" transform="translate(-20.274 -21.226)"/><path d="M133.64,139.243a.571.571,0,0,1-.571-.57l0-6.8a.571.571,0,0,1,1.143,0v6.8a.571.571,0,0,1-.57.571" transform="translate(-20.274 -20.004)"/><path d="M139.352,185.676a.571.571,0,0,1-.563-.48l-2.4-14.86a.571.571,0,1,1,1.127-.181l2.4,14.859a.572.572,0,0,1-.473.655.667.667,0,0,1-.092.007" transform="translate(-20.779 -25.851)"/><path d="M98.555,48.193A14.724,14.724,0,1,1,83.831,33.469,14.724,14.724,0,0,1,98.555,48.193" transform="translate(-10.529 -5.099)"/><path d="M84.988,61.046a15.295,15.295,0,1,1,15.295-15.295A15.312,15.312,0,0,1,84.988,61.046m0-29.448A14.153,14.153,0,1,0,99.141,45.751,14.169,14.169,0,0,0,84.988,31.6" transform="translate(-10.618 -4.64)"/><path d="M85.954,105.035l2.131-14.01c7.667-2.507,3.568-11.763,3.568-11.763,8.178.07,11.019-8.064,12.236-12.532a2.054,2.054,0,0,1,2.862-1.319c2.409,1.146,5.9,3.086,6.3,5.782,1.912,12.618,5.761,25.047-7.808,26.157v7.685Z" transform="translate(-13.096 -9.935)" fill="#fff"/><path d="M86.388,107.156a.5.5,0,0,1-.086-.007.571.571,0,0,1-.479-.65L87.5,95.477a.571.571,0,1,1,1.129.172l-1.677,11.022a.571.571,0,0,1-.564.485" transform="translate(-13.075 -14.473)"/><path d="M108.611,104.07a.571.571,0,0,1-.571-.571V97.646a.572.572,0,0,1,.525-.57c3.513-.287,5.939-1.351,7.416-3.252,2.967-3.816,1.8-10.707.567-18-.232-1.376-.473-2.8-.687-4.21a14.134,14.134,0,0,0-1.746-3.571.571.571,0,1,1,.942-.645,14.942,14.942,0,0,1,1.912,3.936.5.5,0,0,1,.015.07c.214,1.416.456,2.846.691,4.23,1.277,7.55,2.483,14.681-.792,18.894-1.607,2.067-4.129,3.26-7.7,3.64V103.5a.571.571,0,0,1-.571.571" transform="translate(-16.461 -10.23)"/><path d="M107.382,103.4a21.87,21.87,0,0,1-7.037-1.148.571.571,0,1,1,.4-1.069,21.179,21.179,0,0,0,6.637,1.075.571.571,0,1,1,0,1.142" transform="translate(-15.232 -15.41)"/><path d="M107.387,107.736s-2.266,1.972-4.557.373-2.824-6.607-2.824-6.607l7.38,1.378Z" transform="translate(-15.237 -15.465)"/><path d="M113.912,86.016a.572.572,0,0,1-.545-.4L111.051,78.2a.571.571,0,1,1,1.089-.34l2.317,7.417a.57.57,0,0,1-.545.742" transform="translate(-16.915 -11.801)"/><path d="M81.425,66.523a.571.571,0,0,1-.231-1.093l18.082-8.006a.571.571,0,0,1,.462,1.044L81.656,66.473a.57.57,0,0,1-.231.049" transform="translate(-12.319 -8.741)" fill="#4ce0b3"/><path d="M151.57,184.074H90.413a7.63,7.63,0,0,1-7.63-7.63V141.461a7.63,7.63,0,0,1,7.63-7.63H151.57a7.63,7.63,0,0,1,7.63,7.63v34.984a7.63,7.63,0,0,1-7.63,7.63" transform="translate(-12.613 -20.39)"/><path d="M132.861,162.372a6.1,6.1,0,1,1-6.1-6.1,6.1,6.1,0,0,1,6.1,6.1" transform="translate(-18.384 -23.809)" fill="#fff"/><path d="M13.946,176.127a.571.571,0,0,1-.248-1.086C30.218,167.109,49.024,165,49.212,164.978a.571.571,0,1,1,.124,1.136c-.186.02-18.806,2.111-35.143,9.956a.558.558,0,0,1-.247.057" transform="translate(-2.038 -25.135)"/><path d="M55.625,211.044a.571.571,0,0,1-.334-1.034L68.218,200.7a.571.571,0,1,1,.668.926l-12.927,9.309a.567.567,0,0,1-.333.108" transform="translate(-8.388 -30.562)"/><path d="M55.624,160.986a.571.571,0,0,1-.571-.571V131.866a.571.571,0,0,1,1.143,0v28.548a.571.571,0,0,1-.571.571" transform="translate(-8.388 -20.004)"/><path d="M200.271,3.227A15.112,15.112,0,1,1,179.052,5.78a15.112,15.112,0,0,1,21.219-2.553" transform="translate(-26.788 0)" fill="#f18f01"/><path d="M181.972,57.513l33.656,1.251L212.745,95a16.832,16.832,0,0,1-33.5.572c-.636-5.5-1.689-11.318-3.431-15.72-4.552-11.5,6.162-22.344,6.162-22.344" transform="translate(-26.614 -8.763)" fill="#fff"/><path d="M195.831,110.973A17.419,17.419,0,0,1,178.574,95.54a63.844,63.844,0,0,0-3.395-15.575c-4.636-11.712,6.177-22.845,6.286-22.956a.581.581,0,0,1,.427-.17l33.656,1.251a.571.571,0,0,1,.548.616l-2.883,36.24a17.454,17.454,0,0,1-15.283,15.9,17.7,17.7,0,0,1-2.1.125M182.11,57.991c-1.329,1.442-9.917,11.325-5.868,21.554a64.993,64.993,0,0,1,3.468,15.864,16.261,16.261,0,0,0,32.366-.552l2.836-35.647Z" transform="translate(-26.514 -8.66)"/><path d="M159.661,89.46l1.527-24.221S129,69.916,118.365,72.008a5.481,5.481,0,0,0,.068,10.685c10.256,1.98,41.228,6.767,41.228,6.767" transform="translate(-17.39 -9.94)" fill="#0095eb"/><path d="M228.156,52.044V52.03h-.545c-1.832,0-59.585,6.859-60.363,7.007l-.021,0h0a16.588,16.588,0,0,0,3.131,32.878c.33,0,54.879,6.607,55.829,6.663l.049.007v0c.455.026.913.043,1.375.043a23.3,23.3,0,0,0,.544-46.585" transform="translate(-23.428 -7.927)" fill="#0095eb"/><path d="M236.593,99.1a23.87,23.87,0,1,1,23.87-23.87,23.9,23.9,0,0,1-23.87,23.87m0-46.6a22.729,22.729,0,1,0,22.729,22.729A22.755,22.755,0,0,0,236.593,52.5" transform="translate(-32.41 -7.824)"/><path d="M256.926,76a19.556,19.556,0,1,1-19.558-19.556A19.557,19.557,0,0,1,256.926,76" transform="translate(-33.185 -8.6)" fill="#fff"/><path d="M170.256,93.592a17.159,17.159,0,0,1,0-34.319.572.572,0,0,1,0,1.143,16.017,16.017,0,0,0,0,32.034.57.57,0,1,1,0,1.141" transform="translate(-23.325 -9.031)"/><path d="M214.756,53.21c-4.473-4.476-9.908-5.573-15.442-2.583-4.663-3.045-8.755.619-8.755.619a5.931,5.931,0,0,0-4.293-.342,11.446,11.446,0,0,0-3.795,2.15c-4.705-1.6-9.585,4.621-9.1,8.754.231,1.951,1.8,2.584,3.647,2.347a5.478,5.478,0,0,0,3.548-1.983,3.38,3.38,0,0,0,2.466,2.754,4.325,4.325,0,0,0,4.71-1.855c.439,1.573,2.322,2.437,4.087,2.152,2.76-.445,4.368-2.772,5.543-5.129.676,1.329,2.968,1.722,4.466,1.12,2.826-1.136,5.317-4.11,6.646-6.9,1.979-.158,6.268-1.106,6.268-1.106" transform="translate(-26.41 -7.458)" fill="#fff"/><path d="M191.039,65.747a4.236,4.236,0,0,1-3.536-1.735,4.7,4.7,0,0,1-4.726,1.36,3.964,3.964,0,0,1-2.583-2.206,6.02,6.02,0,0,1-3.2,1.452,4.147,4.147,0,0,1-3.139-.661,3.112,3.112,0,0,1-1.147-2.185c-.306-2.584,1.287-5.929,3.787-7.952a6.371,6.371,0,0,1,5.776-1.5c.179-.127.342-.245.493-.355a9.733,9.733,0,0,1,3.22-1.708,6.427,6.427,0,0,1,4.4.22,7.883,7.883,0,0,1,8.859-.613c5.531-2.851,11.138-1.849,15.821,2.837a.571.571,0,0,1-.281.961c-.168.037-3.93.866-6.021,1.088-1.247,2.469-3.71,5.644-6.8,6.887a4.82,4.82,0,0,1-4.572-.619c-1.127,2.063-2.777,4.214-5.559,4.663a4.912,4.912,0,0,1-.782.063m-3.4-3.35a.525.525,0,0,1,.1.009.571.571,0,0,1,.448.408,3.01,3.01,0,0,0,3.447,1.743c2.621-.423,4.114-2.8,5.122-4.821a.569.569,0,0,1,.509-.316h0a.571.571,0,0,1,.509.312c.535,1.052,2.506,1.346,3.745.848,2.912-1.17,5.237-4.293,6.343-6.612a.57.57,0,0,1,.47-.323c1.321-.106,3.74-.581,5.131-.87-4.214-3.737-9.145-4.365-13.987-1.749A.569.569,0,0,1,198.9,51a6.729,6.729,0,0,0-8.063.567.573.573,0,0,1-.649.077,5.409,5.409,0,0,0-3.843-.3,8.716,8.716,0,0,0-2.912,1.549c-.219.158-.459.332-.735.526a.573.573,0,0,1-.513.074,5.328,5.328,0,0,0-4.974,1.216c-2.18,1.765-3.63,4.744-3.372,6.93a2.015,2.015,0,0,0,.716,1.419,3.15,3.15,0,0,0,2.29.429,4.93,4.93,0,0,0,3.18-1.78.571.571,0,0,1,1.005.278,2.808,2.808,0,0,0,2.057,2.289,3.763,3.763,0,0,0,4.094-1.644.573.573,0,0,1,.46-.232" transform="translate(-26.307 -7.355)"/><path d="M181.765,63.377a.609.609,0,0,1-.117-.012.571.571,0,0,1-.442-.676l1.9-9.117a.571.571,0,1,1,1.118.233l-1.9,9.117a.572.572,0,0,1-.559.454" transform="translate(-27.606 -8.093)"/><path d="M190.231,63.952a.554.554,0,0,1-.133-.016.571.571,0,0,1-.423-.687l2.815-11.824a.571.571,0,0,1,1.11.264l-2.815,11.824a.57.57,0,0,1-.554.439" transform="translate(-28.896 -7.768)"/><path d="M201.593,60.863a.6.6,0,0,1-.115-.012.572.572,0,0,1-.445-.674l1.939-9.466a.571.571,0,1,1,1.119.229l-1.939,9.466a.571.571,0,0,1-.559.456" transform="translate(-30.627 -7.657)"/><path d="M203.094,98.288c-.238-11.514-9.347-15.825-12.248-17.022a10.52,10.52,0,0,0-4.051-.792,16.326,16.326,0,0,0-2.285.377s-1.2-1.5-1.435-1.894c-1.925-3.324-9.08-13.588-13.547-6.67-2.155,3.337,1.542,8.27,2.976,11.483,1.77,3.966,5.211,14.65,6,14.681,2.495.1,5.978.476,9.971.578,9.77.248,14.624-.742,14.624-.742" transform="translate(-25.728 -10.656)" fill="#fff"/><path d="M178.4,98.92a.571.571,0,0,1-.546-.406c-.194-.555-4.269-10.8-5.972-14.613-.295-.662-.7-1.411-1.12-2.2-1.646-3.078-3.695-6.908-1.814-9.821,1.142-1.769,2.553-2.653,4.2-2.606,4.868.118,9.779,8.359,10.323,9.3.129.223.713.978,1.165,1.546a13.327,13.327,0,0,1,2.059-.314,11.42,11.42,0,0,1,4.271.835c4.61,1.9,12.377,6.708,12.6,17.538a.57.57,0,0,1-.559.582.558.558,0,0,1-.583-.559c-.21-10.18-7.543-14.711-11.895-16.505a10.294,10.294,0,0,0-3.83-.748,15.137,15.137,0,0,0-2.161.362.572.572,0,0,1-.573-.2c-.126-.157-1.239-1.544-1.484-1.967-1.727-2.983-5.907-8.646-9.362-8.73-1.243-.029-2.287.652-3.211,2.083-1.516,2.348.356,5.85,1.861,8.664.434.811.844,1.578,1.156,2.278,1.672,3.746,5.974,14.532,6.032,14.788a.571.571,0,0,1-.431.682.54.54,0,0,1-.126.014" transform="translate(-25.626 -10.553)"/><path d="M87.722,82.608a5.148,5.148,0,1,0,5.148-5.149,5.148,5.148,0,0,0-5.148,5.149" transform="translate(-13.365 -11.801)" fill="#fff"/><path d="M94.471,84.615a.572.572,0,0,1-.465-.239l-1.884-2.639a.571.571,0,1,1,.929-.664l1.885,2.639a.571.571,0,0,1-.464.9" transform="translate(-14.019 -12.316)"/><path d="M103.9,80.211a1.155,1.155,0,1,0,1.154-1.155,1.155,1.155,0,0,0-1.154,1.155" transform="translate(-15.83 -12.045)"/><path d="M115.169,90.075h-2.728a.571.571,0,1,1,0-1.142h2.728a.571.571,0,1,1,0,1.142" transform="translate(-17.044 -13.55)"/><path d="M247.07,142.28a7.677,7.677,0,1,1,7.677-7.676,7.685,7.685,0,0,1-7.677,7.676m0-14.212a6.535,6.535,0,1,0,6.535,6.535,6.542,6.542,0,0,0-6.535-6.535" transform="translate(-36.473 -19.338)"/><path d="M238.984,66.912a10.733,10.733,0,1,0,10.733,10.733H238.984Z" transform="translate(-34.776 -10.195)"/><path d="M244.147,63.846V74.579H254.88a10.733,10.733,0,0,0-10.733-10.733" transform="translate(-37.198 -9.727)" fill="#0095eb"/><path d="M93.686,150.487c4.91-1.16,8.916-3.389,8.531-5.946-.433-2.878-4.039-3.879-6.911-3.615s-12.806,1.4-12.806,1.4,11.871-8.041,9.258-11.126-9.555-.15-12.244,1.351c-4.864,2.715-14.928,9.918-17.4,13.914s.2,11.1.2,11.1l-7.113,2.16a16.387,16.387,0,1,0,10.764,30.927q1.42-.558,2.995-1.184C85.5,182.9,79.935,172.68,79.935,172.68c4.407-2.049,18.051-1.757,17.6-7.872-.264-3.545-2.476-4.181-4.289-4.091,3.756-.943,8.96-3,8.308-7.152-.576-3.657-5.2-3.491-7.864-3.079" transform="translate(-6.637 -19.783)" fill="#fff"/><path d="M59.853,192.262a16.956,16.956,0,0,1-4.93-33.181l6.546-1.989c-.592-1.822-2.148-7.48.052-11.031,2.625-4.236,13.011-11.544,17.612-14.112.388-.216,9.54-5.256,12.958-1.221a2.2,2.2,0,0,1,.485,1.793c-.389,2.832-5.274,6.824-8.05,8.886,3.1-.351,8.617-.969,10.625-1.153,3.385-.312,7.061,1,7.528,4.1.341,2.262-1.983,4.081-5.025,5.338,2.517.34,4.027,1.592,4.357,3.683.481,3.056-1.725,5.488-6.4,7.107,1.171.556,2.209,1.747,2.391,4.182.353,4.734-6.5,5.984-12.007,6.987a37,37,0,0,0-5.394,1.23,10.194,10.194,0,0,1,.1,7.21c-1.455,4.02-5.37,7.321-11.635,9.811q-1.578.627-3,1.185a16.946,16.946,0,0,1-6.21,1.177m28.272-61.948c-2.943,0-6.751,1.693-8.436,2.633-4.687,2.616-14.777,9.811-17.2,13.717-2.3,3.714.22,10.535.245,10.6a.571.571,0,0,1-.369.748l-7.113,2.161a15.816,15.816,0,1,0,10.39,29.85q1.419-.559,2.993-1.184c5.937-2.359,9.629-5.426,10.975-9.116a9.058,9.058,0,0,0-.281-6.874.573.573,0,0,1,.262-.79,29.413,29.413,0,0,1,6.193-1.533c5.321-.97,11.35-2.069,11.073-5.779-.187-2.512-1.4-3.677-3.691-3.563A.571.571,0,0,1,93,160.061c3.909-.982,8.45-2.909,7.883-6.509-.5-3.159-4.732-2.988-7.213-2.6a.571.571,0,0,1-.218-1.121c5.138-1.213,8.393-3.345,8.1-5.3-.358-2.377-3.508-3.386-6.294-3.132-2.832.26-12.7,1.388-12.794,1.4a.571.571,0,0,1-.386-1.04c2.479-1.678,8.991-6.636,9.368-9.384a1.078,1.078,0,0,0-.225-.9,3.883,3.883,0,0,0-3.095-1.152" transform="translate(-6.536 -19.68)"/><path d="M69.42,175.335a.572.572,0,0,1-.545-.4l-4.505-14.411a.571.571,0,0,1,1.09-.341l4.505,14.411a.572.572,0,0,1-.545.742" transform="translate(-9.803 -24.344)"/><path d="M80.4,169.959a.571.571,0,0,1-.1-1.134l20.432-3.535a.571.571,0,0,1,.195,1.126L80.5,169.951a.555.555,0,0,1-.1.008" transform="translate(-12.162 -25.182)"/><path d="M79.519,158.069a.571.571,0,0,1-.1-1.134l21.2-3.669a.571.571,0,1,1,.195,1.125l-21.2,3.669a.557.557,0,0,1-.1.008" transform="translate(-12.028 -23.35)"/><path d="M78.442,147.1a.571.571,0,0,1-.123-1.128L87.6,143.91a.571.571,0,0,1,.248,1.115l-9.283,2.062a.573.573,0,0,1-.125.014" transform="translate(-11.864 -21.924)"/></g></svg>