<svg xmlns="http://www.w3.org/2000/svg" xmlns:xlink="http://www.w3.org/1999/xlink" width="251.58" height="181.565" viewBox="0 0 251.58 181.565"><defs><clipPath id="a"><rect width="251.58" height="181.565" fill="none"/></clipPath></defs><g clip-path="url(#a)"><path d="M135.322,22.976C114.91,7.633,83.4,8.026,66.028,28.96c-4.763,5.739-7.244,12.1-14.751,14.972-6.845,2.618-13.664.456-20.653,1C16.967,46.008,5.762,56.277,1.943,69.183c-5.378,18.174.732,37.564,14.343,50.464,12.576,11.918,30.862,15.8,47.688,16.4,11.38.4,22.74-.721,34.019-2.117,9.947-1.231,19.634-3.135,27.989-9.064,25.925-18.4,38.661-58.959,22.219-87.428a48.33,48.33,0,0,0-12.88-14.459" transform="translate(0 -2.792)" fill="#f18f01"/><path d="M66.951,27.933A13.121,13.121,0,1,1,54.3,14.36,13.121,13.121,0,0,1,66.951,27.933" transform="translate(-9.273 -3.268)" fill="#f18f01"/><rect width="165.177" height="130.504" transform="translate(35.176 50.565)" fill="#fff"/><path d="M210.581,196.331H45.4a.5.5,0,0,1-.5-.5V65.331a.5.5,0,0,1,.5-.5H210.581a.5.5,0,0,1,.5.5v130.5a.5.5,0,0,1-.5.5M45.9,195.339H210.086V65.827H45.9Z" transform="translate(-10.228 -14.766)"/><path d="M187.947,83.028H45.4a.5.5,0,1,1,0-.992H187.947a.5.5,0,0,1,0,.992" transform="translate(-10.228 -18.683)"/><path d="M56.688,72.815A2.289,2.289,0,1,1,54.4,70.526a2.289,2.289,0,0,1,2.289,2.289" transform="translate(-11.868 -16.062)"/><path d="M67.646,72.815a2.289,2.289,0,1,1-2.289-2.289,2.289,2.289,0,0,1,2.289,2.289" transform="translate(-14.363 -16.062)" fill="#0095eb"/><path d="M240.758,78.746a56.051,56.051,0,1,1-56.051-56.051,56.051,56.051,0,0,1,56.051,56.051" transform="translate(-29.301 -5.169)" fill="#fff"/><path d="M184.562,135.146A56.546,56.546,0,1,1,241.109,78.6a56.61,56.61,0,0,1-56.547,56.546m0-112.1A55.555,55.555,0,1,0,240.117,78.6a55.618,55.618,0,0,0-55.555-55.555" transform="translate(-29.155 -5.022)"/><path d="M184.745,146.984a56.062,56.062,0,0,0,55.449-47.832c-8.917-15.423-22.132-22.137-39.563-22.941l-20,.082c-11.178.6-23.928,4.9-29.673,13.833-2.3,3.573-21.578-.229-21.578-.229-2.111,5.9,2.187,20.189,5.45,26.559a56.044,56.044,0,0,0,49.915,30.53" transform="translate(-29.338 -17.357)"/><path d="M199.649,86.854c7.207.009,16.98-5.5,22.272-9.774a65.046,65.046,0,0,0-8.131-.87l-20,.082a53.556,53.556,0,0,0-7.191.883c1.079,3.028,4.423,9.667,13.05,9.679" transform="translate(-42.497 -17.357)" fill="#fff"/><path d="M292.717,187.274a.5.5,0,0,1-.262-.074l-12.588-7.824a.5.5,0,0,1,.524-.843l12.188,7.575,16.974-24.341-46.28,6.129,9.069,5.636a.5.5,0,0,1-.524.842l-10.244-6.366a.5.5,0,0,1,.2-.913l48.768-6.458a.5.5,0,0,1,.472.775l-17.887,25.65a.494.494,0,0,1-.407.212" transform="translate(-59.519 -36.583)"/><path d="M281.319,191.175a.5.5,0,0,1-.478-.628l3.248-11.724a.5.5,0,0,1,.228-.3L314.791,160.7a.5.5,0,1,1,.5.856l-30.3,17.725-2.848,10.279,9.781-6.283a.5.5,0,1,1,.536.833L281.587,191.1a.5.5,0,0,1-.268.079" transform="translate(-63.956 -36.584)"/><path d="M279.9,191.175a.5.5,0,0,1-.477-.359l-4.8-16.725a.494.494,0,0,1,.32-.607l38.523-12.825a.5.5,0,0,1,.313.941L275.71,174.274l4.669,16.268a.5.5,0,0,1-.34.613.488.488,0,0,1-.136.019" transform="translate(-62.541 -36.583)"/><path d="M184.6,147.335a56.356,56.356,0,0,1-50.356-30.8c-3.106-6.063-7.723-20.662-5.475-26.952a.5.5,0,0,1,.562-.319c7.327,1.445,19.526,2.844,21.066.448,6.109-9.5,19.535-13.494,30.063-14.06l20.025-.083c9.133.421,16.72,2.4,23.219,6.053,6.844,3.846,12.332,9.452,16.776,17.136a.5.5,0,0,1,.061.32,56.56,56.56,0,0,1-55.94,48.256M129.569,90.321c-1.657,5.762,2.171,19.157,5.554,25.762A55.566,55.566,0,0,0,239.531,99.1c-8.463-14.539-20.883-21.7-39.071-22.545l-19.975.083c-10.259.552-23.351,4.417-29.258,13.6-2.285,3.554-18.3.714-21.658.073" transform="translate(-29.19 -17.211)"/><path d="M177.507,136.592a.5.5,0,0,1-.477-.362c-8.465-30.173-11.363-48.141-11.391-48.319a.5.5,0,0,1,.979-.155c.028.178,2.918,18.095,11.366,48.207a.5.5,0,0,1-.343.611.506.506,0,0,1-.134.019" transform="translate(-37.722 -19.891)" fill="#fff"/><path d="M246.146,141.209a.5.5,0,0,1-.474-.352l-9.885-32.609a.5.5,0,0,1,.949-.288l9.885,32.61a.5.5,0,0,1-.331.618.488.488,0,0,1-.144.022" transform="translate(-53.695 -24.507)" fill="#fff"/><path d="M217.158,44.1A15.838,15.838,0,1,1,201.32,28.259,15.838,15.838,0,0,1,217.158,44.1" transform="translate(-42.243 -6.436)"/><path d="M211.373,57.686c-4.359-1.4-8.09-7.962-8.172-8.291-.675-2.712.44-10.682.44-10.682s-10.167-2.606-13.216-1.293c-1.714.738-3.438,4.515-3.517,6.062a42.671,42.671,0,0,0-.469,9.748c.6,7.424.239,12.06,8.112,12.06l.087,4.768h17.118Z" transform="translate(-42.435 -8.438)" fill="#fff"/><path d="M194.464,71.376a.5.5,0,0,1-.5-.483l-.076-3.189c-7.225-.178-7.532-4.419-7.991-10.768-.041-.562-.083-1.143-.131-1.743a65.781,65.781,0,0,1-.1-9.245.5.5,0,0,1,.988.076,64.745,64.745,0,0,0,.1,9.089c.049.6.091,1.186.131,1.751.459,6.353.712,9.853,7.486,9.853a.5.5,0,0,1,.5.483l.087,3.667a.5.5,0,0,1-.484.507Z" transform="translate(-42.259 -10.36)"/><path d="M219,75.393a.5.5,0,0,1-.5-.479l-.384-11.271a.5.5,0,0,1,.478-.513.485.485,0,0,1,.513.479l.384,11.271a.5.5,0,0,1-.479.512H219" transform="translate(-49.676 -14.377)"/><path d="M196.832,73.589a.5.5,0,0,1-.019-.99,18.416,18.416,0,0,0,6.4-1.247.5.5,0,0,1,.418.9,19.023,19.023,0,0,1-6.784,1.338h-.019" transform="translate(-44.715 -16.239)"/><path d="M197.065,75.177s.693,3.255,3,3.2,4.1-6.247,4.1-6.247l-7.18,1.148Z" transform="translate(-44.861 -16.428)"/><path d="M192.638,57.825a.382.382,0,0,1-.059,0,.5.5,0,0,1-.434-.55l.779-6.625a.5.5,0,1,1,.985.117l-.779,6.624a.5.5,0,0,1-.492.438" transform="translate(-43.759 -11.434)"/><path d="M215.083,53.9a4.2,4.2,0,1,1-4.2-4.2,4.2,4.2,0,0,1,4.2,4.2" transform="translate(-47.073 -11.321)" fill="#fff"/><path d="M210.98,55.829a.5.5,0,0,1-.4-.784l1.536-2.15a.5.5,0,1,1,.807.576l-1.536,2.15a.494.494,0,0,1-.4.208" transform="translate(-47.937 -11.999)"/><path d="M194.136,62.715a.5.5,0,0,1-.15-.968,2.63,2.63,0,0,0,1.406-1.487.5.5,0,0,1,.934.333,3.592,3.592,0,0,1-2.04,2.1.5.5,0,0,1-.15.023" transform="translate(-44.101 -13.649)"/><path d="M200.239,52.535a1,1,0,1,0,.9-1.1,1,1,0,0,0-.9,1.1" transform="translate(-45.602 -11.714)"/><path d="M190.2,52.535a1,1,0,1,0,.9-1.1,1,1,0,0,0-.9,1.1" transform="translate(-43.316 -11.714)"/><path d="M159.7,26.653A26.652,26.652,0,1,1,133.053,0,26.652,26.652,0,0,1,159.7,26.653" transform="translate(-24.232 0)" fill="#0095eb"/><path d="M144.1,45.106a4.966,4.966,0,1,1-4.966-4.965,4.966,4.966,0,0,1,4.966,4.965" transform="translate(-30.555 -9.142)" fill="#fff"/><path d="M148.6,34.438h0a3.006,3.006,0,0,1-3.006-3.006V24.76a9.583,9.583,0,0,0-9.089-9.655,9.435,9.435,0,0,0-9.777,9.428v6.9a3.006,3.006,0,0,1-3.006,3.006,2.55,2.55,0,0,0-2.585,2.407,2.482,2.482,0,0,0,2.481,2.558h25.087a2.483,2.483,0,0,0,2.481-2.558,2.552,2.552,0,0,0-2.586-2.407" transform="translate(-27.588 -3.439)" fill="#fff"/><path d="M148.56,39.753H123.472a2.978,2.978,0,0,1-2.976-3.07,3.054,3.054,0,0,1,3.081-2.887,2.514,2.514,0,0,0,2.511-2.511v-6.9a9.929,9.929,0,0,1,10.291-9.922,10.129,10.129,0,0,1,9.567,10.148v6.673a2.514,2.514,0,0,0,2.511,2.511,3.054,3.054,0,0,1,3.081,2.887,2.978,2.978,0,0,1-2.976,3.07m-12.547-24.3a8.937,8.937,0,0,0-8.935,8.937v6.9a3.506,3.506,0,0,1-3.5,3.5,2.056,2.056,0,0,0-2.09,1.925,1.986,1.986,0,0,0,1.985,2.048H148.56a1.986,1.986,0,0,0,1.985-2.048,2.056,2.056,0,0,0-2.09-1.925,3.506,3.506,0,0,1-3.5-3.5V24.613a9.129,9.129,0,0,0-8.611-9.157c-.11,0-.22-.006-.329-.006" transform="translate(-27.442 -3.293)" fill="#0095eb"/><path d="M123.695,123.933H65.951a30.234,30.234,0,1,0,0,60.467H84.713l10.11,15.546,10.11-15.546h18.762a30.234,30.234,0,1,0,0-60.467" transform="translate(-8.134 -28.225)" fill="#0095eb"/><path d="M94.676,200.295a.5.5,0,0,1-.415-.225L84.3,184.749H65.8a30.73,30.73,0,1,1,0-61.459h57.744a30.73,30.73,0,1,1,0,61.459H105.054l-9.963,15.32a.5.5,0,0,1-.415.225M65.8,124.282a29.738,29.738,0,1,0,0,59.476H84.565a.493.493,0,0,1,.415.226l9.695,14.906,9.694-14.906a.5.5,0,0,1,.415-.226h18.762a29.738,29.738,0,1,0,0-59.476Z" transform="translate(-7.988 -28.079)"/><path d="M116.73,161.211a6.348,6.348,0,1,1-6.348-6.348,6.348,6.348,0,0,1,6.348,6.348" transform="translate(-23.693 -35.269)" fill="#fff"/><path d="M78.047,161.211a6.348,6.348,0,1,1-6.348-6.348,6.348,6.348,0,0,1,6.348,6.348" transform="translate(-14.883 -35.269)" fill="#fff"/><path d="M155.412,161.211a6.348,6.348,0,1,1-6.348-6.348,6.348,6.348,0,0,1,6.348,6.348" transform="translate(-32.503 -35.269)" fill="#fff"/><path d="M139.476,95.12A14.41,14.41,0,0,0,151.86,78.248c-.4-2.189-.753-4.029-.984-4.989-1.3-5.414-4.5-9.316-11.549-8.655a38.123,38.123,0,0,0-1.718-6.733c-2.9-6.963-8.087-6.963-8.15-2.207,0,0-2.5-5.23-5.857-4.494s-2.783,5.465-2.783,5.465-2.975-6.244-7.106-4.5c-4.378,1.85.083,9.85.083,9.85s-4.875-8.18-9.039-4.882c-2.692,2.132.473,7.333,4.742,14.549,2.4,4.049,6.874,5.058,12.98,4.595l.941,6.607A14.407,14.407,0,0,0,139.476,95.12" transform="translate(-23.631 -11.638)" fill="#fff"/><path d="M137.554,95.58a14.985,14.985,0,0,1-14.769-12.8l-.877-6.15c-6.725.433-10.738-1.078-12.981-4.869l-.276-.466c-4.25-7.18-7.32-12.369-4.347-14.724a3.811,3.811,0,0,1,3.165-.823,8.426,8.426,0,0,1,4.222,2.712,8.241,8.241,0,0,1-.288-4.827,3.4,3.4,0,0,1,1.972-2.1c3.113-1.317,5.556,1.308,6.814,3.154.207-1.728,1.015-3.678,3.162-4.149,2.588-.568,4.637,1.876,5.674,3.475a2.959,2.959,0,0,1,2.274-2.271c1.941-.375,4.741,1.271,6.624,5.791a35.662,35.662,0,0,1,1.672,6.392c6.159-.416,10.069,2.632,11.619,9.07.212.883.545,2.571.989,5.016A14.9,14.9,0,0,1,137.554,95.58m1.777-.607h0Zm-17-19.367a.5.5,0,0,1,.49.425l.941,6.607a13.976,13.976,0,0,0,15.5,11.842,13.912,13.912,0,0,0,11.958-16.292c-.44-2.426-.769-4.1-.978-4.96-1.475-6.127-5.08-8.835-11.021-8.279a.494.494,0,0,1-.535-.415,37.943,37.943,0,0,0-1.686-6.62c-1.659-3.984-4.025-5.488-5.521-5.2-1.029.2-1.656,1.248-1.676,2.806a.5.5,0,0,1-.944.207c-.023-.048-2.368-4.863-5.3-4.223-2.877.631-2.4,4.878-2.4,4.922a.5.5,0,0,1-.94.273c-.028-.058-2.82-5.794-6.465-4.254a2.414,2.414,0,0,0-1.42,1.505c-.95,2.758,1.716,7.6,1.743,7.646a.5.5,0,0,1-.859.5c-.029-.048-2.907-4.817-5.936-5.373a2.822,2.822,0,0,0-2.369.625c-2.3,1.818.741,6.948,4.585,13.442l.276.466c2.077,3.51,5.936,4.854,12.516,4.353a.311.311,0,0,1,.038,0" transform="translate(-23.485 -11.491)"/><path d="M120.768,75.718a.494.494,0,0,1-.459-.308L116.15,65.239a.5.5,0,1,1,.917-.375l4.159,10.171a.5.5,0,0,1-.271.646.489.489,0,0,1-.188.037" transform="translate(-26.444 -14.702)"/><path d="M131.055,73.086a.5.5,0,0,1-.465-.324l-5.352-14.468a.5.5,0,0,1,.931-.344l5.352,14.468a.5.5,0,0,1-.293.637.483.483,0,0,1-.172.031" transform="translate(-28.515 -13.124)"/><path d="M142.876,72.8a.5.5,0,0,1-.463-.317l-5.983-15.44a.5.5,0,1,1,.924-.358l5.983,15.44a.5.5,0,0,1-.283.642.506.506,0,0,1-.179.033" transform="translate(-31.064 -12.837)"/><path d="M140.818,84.016H127.854a.5.5,0,1,1,0-.992h12.964a.5.5,0,0,1,0,.992" transform="translate(-29.005 -18.908)"/><path d="M221.594,212.318a20.38,20.38,0,0,1-7.539-1.368,11.987,11.987,0,0,1-7.005-6.3c-.016-.04-.032-.08-.048-.12a19.965,19.965,0,0,1-7.928,1.087c-4-.372-7.5-2.623-8.907-5.735-1.964-4.335.124-9.327,2.221-12.753a44.533,44.533,0,0,1,13-13.545.5.5,0,0,1,.554.822,43.539,43.539,0,0,0-12.713,13.241c-1.972,3.221-3.949,7.887-2.164,11.826,1.266,2.793,4.444,4.817,8.1,5.157a19.043,19.043,0,0,0,7.526-1.041,14.091,14.091,0,0,1,6.283-14.372,8.033,8.033,0,0,1,6.831-.654,4.262,4.262,0,0,1,2.326,1.985c.9,1.865-.266,3.945-1.038,5.019-2.368,3.289-6.022,5.838-11.5,8.02-.521.208-1.073.419-1.65.624.009.021.017.042.026.063,1.363,3.338,4.627,5.038,6.45,5.755,5.805,2.284,12.913,1.559,21.73-2.209a83.122,83.122,0,0,0,20.167-12.265.5.5,0,0,1,.63.765,84.075,84.075,0,0,1-20.407,12.411c-5.6,2.4-10.552,3.589-14.945,3.589m-4.407-23.253a7.624,7.624,0,0,0-3.725,1.013,13.132,13.132,0,0,0-5.829,13.189c.557-.2,1.089-.4,1.592-.6,5.3-2.11,8.811-4.549,11.064-7.679.644-.9,1.624-2.607.949-4.01a3.276,3.276,0,0,0-1.8-1.494,6.072,6.072,0,0,0-2.252-.417" transform="translate(-43.131 -39.513)" fill="#4ce0b3"/><path d="M23.829,105.909a.5.5,0,0,1-.351-.846L29.34,99.2a.5.5,0,0,1,.7.7l-5.861,5.861a.5.5,0,0,1-.351.145" transform="translate(-5.314 -22.56)"/><path d="M29.69,105.909a.5.5,0,0,1-.351-.145L23.478,99.9a.5.5,0,0,1,.7-.7l5.861,5.861a.5.5,0,0,1-.351.846" transform="translate(-5.314 -22.56)"/><path d="M202.777,36.124s-11.377,5.724-13.209,3.794c-1.314-1.385.886-3.794.886-3.794s-5.576,3.013-7.4.956c-1.721-1.941.809-5.234,7.4-7.877,0,0-3.209-1.322-1-3.057s14.782,1.938,14.782,1.938Z" transform="translate(-41.57 -5.849)"/></g></svg>