<svg xmlns="http://www.w3.org/2000/svg" width="167.831" height="179.538" viewBox="0 0 167.831 179.538"><path d="M209.947,242.413s0-9.082-2.839-9.082l-.4-4.552H186.428l-.4,4.552c-2.48,0-2.839,9.082-2.839,9.082Z" transform="translate(-51.593 -64.434)" fill="#fff"/><path d="M207.108,235.115H186.026c-2.48,0-2.839,9.082-2.839,9.082h26.76s0-9.082-2.839-9.082" transform="translate(-51.593 -66.218)"/><path d="M143.54,225.656l-4.379,14.19-30.581-9.438a.96.96,0,0,1-.757-1.219c2.427-8.009,13.789-4.211,13.789-4.211l2.568-5.313Z" transform="translate(-30.355 -61.867)" fill="#fff"/><path d="M138.956,240.164a.506.506,0,0,1-.155-.024L108.22,230.7a1.474,1.474,0,0,1-1.1-1.871,7.083,7.083,0,0,1,3.589-4.429c3.753-1.94,8.89-.7,10.425-.261l2.373-4.909a.525.525,0,0,1,.626-.273l19.36,5.992a.524.524,0,0,1,.346.654l-4.379,14.19a.524.524,0,0,1-.5.369m-23.3-15.765a9.8,9.8,0,0,0-4.475.935,6.075,6.075,0,0,0-3.065,3.8c-.106.352.21.506.409.566l30.083,9.284,4.07-13.189-18.43-5.7L121.878,225a.524.524,0,0,1-.637.269,20.11,20.11,0,0,0-5.582-.87" transform="translate(-30.149 -61.662)"/><path d="M139.161,241.576l-30.581-9.438a.96.96,0,0,1-.757-1.219c2.427-8.009,13.789-4.211,13.789-4.211l.162-.335,20.159,6.221Z" transform="translate(-30.355 -63.597)"/><path d="M192.673,199.865s-2.076-44.937-2.043-59.928c.015-6.807-.827-17.557-6.967-20.306l-31.534,1.016L123.305,192.5l25.133,8.02,17.891-43.7.154,43.048Z" transform="translate(-34.728 -33.693)"/><path d="M148.233,200.838a.534.534,0,0,1-.159-.024l-25.132-8.02a.524.524,0,0,1-.326-.7l29.173-71.852a.523.523,0,0,1,.468-.326l31.185-1.016a.531.531,0,0,1,.231.045c4.854,2.172,7.3,9.166,7.277,20.785-.032,14.787,2.022,59.377,2.042,59.826a.523.523,0,0,1-.522.547l-26.191.076h0a.523.523,0,0,1-.524-.522l-.144-40.411-16.891,41.262a.524.524,0,0,1-.485.325M123.8,191.967l24.133,7.7,17.708-43.255a.524.524,0,0,1,1.009.2l.152,42.525,25.12-.073c-.236-5.17-2.049-45.41-2.019-59.331.024-10.919-2.24-17.753-6.549-19.776l-30.722,1Z" transform="translate(-34.523 -33.488)"/><path d="M161,248.517H9.912a.524.524,0,0,1,0-1.047H161a.524.524,0,0,1,0,1.047" transform="translate(-2.644 -68.98)" fill="#4ce0b3"/><path d="M50.147,245.564a.5.5,0,0,1-.471-.338l-2.523-7.491a.5.5,0,1,1,.942-.317l2.524,7.49a.5.5,0,0,1-.312.629.49.49,0,0,1-.159.027" transform="translate(-13.273 -66.053)" fill="#4ce0b3"/><path d="M67.713,243.845a.482.482,0,0,1-.126-.017.5.5,0,0,1-.355-.606l2.794-10.67a.5.5,0,1,1,.961.251l-2.793,10.67a.5.5,0,0,1-.481.371" transform="translate(-18.931 -64.673)" fill="#4ce0b3"/><path d="M181.984,162.748a.524.524,0,0,1-.523-.506l-.923-26.716a.524.524,0,0,1,1.047-.037l.923,26.717a.524.524,0,0,1-.505.542h-.019" transform="translate(-50.847 -38.017)" fill="#fff"/><path d="M0,0H58.722V58.722H0Z" transform="translate(59.246 58.722)" fill="#f18f01"/><path d="M141.2,0H82.474V58.722h25.167a10.294,10.294,0,1,0,8.909,0H141.2Z" transform="translate(-23.228)" fill="#0095eb"/><path d="M68.734,100.811a10.3,10.3,0,0,0-9.283,5.84V81.744H.729v58.722H59.451V115.56a10.295,10.295,0,1,0,9.283-14.749" transform="translate(-0.205 -23.023)" fill="#fff"/><path d="M59.246,140.785H.524A.523.523,0,0,1,0,140.262V81.54a.523.523,0,0,1,.524-.524H59.246a.523.523,0,0,1,.524.524v23.015a10.818,10.818,0,1,1,0,12.691v23.015a.523.523,0,0,1-.524.524m-58.2-1.047H58.722V115.355a.524.524,0,0,1,1-.226,9.77,9.77,0,1,0,0-8.455.524.524,0,0,1-1-.227V82.063H1.047Z" transform="translate(0 -22.818)"/><path d="M68.734,19.067a10.3,10.3,0,0,0-9.283,5.84V0H.729V58.721H25.636a10.294,10.294,0,1,0,8.908,0H59.451V33.815a10.295,10.295,0,1,0,9.283-14.749" transform="translate(-0.205)"/><path d="M157.727,80.936l.315-20.411c5.062-3.433,16.349-2.973,16.349-2.973l11.14.121c13.708,3,17.779,13.331,20.845,29.245,2.945,15.287.9,24.186-11.846,27.328-11.183,2.757-24.908-3.039-36.446-10.021A83.884,83.884,0,0,1,142.9,92.085l10.271-14.578Z" transform="translate(-40.248 -16.204)" fill="#fff"/><path d="M190.93,62.706q-.369,0-.74-.016a13.735,13.735,0,0,1-9.824-4.92.524.524,0,1,1,.789-.689,12.713,12.713,0,0,0,9.081,4.562,15.417,15.417,0,0,0,10-3.131.524.524,0,1,1,.621.844,16.474,16.474,0,0,1-9.926,3.35" transform="translate(-50.762 -16.026)"/><path d="M17.363,151.694a.522.522,0,0,1-.371-.154l-7.013-7.013a.524.524,0,0,1,.741-.741l7.013,7.013a.524.524,0,0,1-.37.894" transform="translate(-2.767 -40.453)" fill="#151515"/><path d="M10.35,151.694a.524.524,0,0,1-.37-.894l7.013-7.013a.524.524,0,0,1,.741.741l-7.014,7.013a.519.519,0,0,1-.37.154" transform="translate(-2.767 -40.453)" fill="#151515"/><path d="M188.246,115.269c-8.494,0-18.763-3.616-30.637-10.8a85.207,85.207,0,0,1-15.29-12.227.523.523,0,0,1-.05-.663L152.541,77a.524.524,0,0,1,.743-.116l3.73,2.81.3-19.381a.523.523,0,0,1,.23-.425c5.146-3.49,16.2-3.082,16.664-3.062l11.124.121a.487.487,0,0,1,.106.012c6.679,1.46,11.364,4.641,14.745,10.011,3.45,5.481,5.223,13.007,6.5,19.646,1.6,8.326,1.584,14.207-.065,18.5-1.833,4.779-5.813,7.863-12.17,9.431a25.879,25.879,0,0,1-6.205.72M143.377,91.823a84.078,84.078,0,0,0,14.773,11.748c14.685,8.887,26.815,12.238,36.05,9.961,11.408-2.813,14.619-10.3,11.457-26.72-3.175-16.473-7.367-25.951-20.391-28.821L174.18,57.87c-.125-.006-10.856-.4-15.824,2.735l-.31,20.133a.523.523,0,0,1-.838.41l-4.121-3.1Z" transform="translate(-40.042 -15.997)"/><path d="M181.894,34.114a10.082,10.082,0,1,0,10.082-10.082,10.082,10.082,0,0,0-10.082,10.082" transform="translate(-51.229 -6.768)"/><path d="M196.007,51.2V44.411c-5.053-.918-3.8-5.155-3.8-5.155-1.408-1.125-.787-3.995-.351-5.457a.784.784,0,0,0-.622-1c-4.268-.715-7.743-3.691-8.723-.283-.214.744-.253.856-.5,1.782-1.829,6.99-4.235,12.452,2.847,12.923l-.009,3.8Z" transform="translate(-50.724 -8.707)" fill="#fff"/><path d="M184.656,51.176h0a.524.524,0,0,1-.523-.525l.007-3.322c-1.94-.2-3.254-.823-4.008-1.886-1.467-2.068-.523-5.471.57-9.411.2-.725.408-1.473.608-2.239.2-.75.261-.971.39-1.417L181.81,32c.1-.325.621-1.932,1.478-2.361a.524.524,0,0,1,.469.937,3.713,3.713,0,0,0-.942,1.72l-.108.373c-.126.437-.19.654-.382,1.39-.2.772-.411,1.524-.613,2.254-1.022,3.683-1.9,6.863-.726,8.525.621.876,1.836,1.363,3.713,1.488a.523.523,0,0,1,.488.524l-.008,3.805a.523.523,0,0,1-.524.522" transform="translate(-50.521 -8.331)"/><path d="M202.039,56.263a.524.524,0,0,1-.524-.524V49.5a.524.524,0,0,1,1.047,0v6.243a.524.524,0,0,1-.524.524" transform="translate(-56.755 -13.793)"/><path d="M184.474,42.919a.508.508,0,0,1-.134-.018.523.523,0,0,1-.372-.64L185,38.35a.524.524,0,1,1,1.012.269l-1.037,3.911a.524.524,0,0,1-.506.389" transform="translate(-51.808 -10.691)"/><path d="M184.088,39.44a.592.592,0,1,1-.5-.67.591.591,0,0,1,.5.67" transform="translate(-51.515 -10.918)"/><path d="M198.852,43.44a2.545,2.545,0,1,1-.876-3.491,2.544,2.544,0,0,1,.876,3.491" transform="translate(-54.674 -11.15)" fill="#fff"/><path d="M196.577,43.409a.524.524,0,0,1-.21-1l1.47-.64a.524.524,0,1,1,.419.96l-1.47.641a.528.528,0,0,1-.209.044" transform="translate(-55.217 -11.75)"/><path d="M190.725,40.382a.59.59,0,1,1-.5-.667.59.59,0,0,1,.5.667" transform="translate(-53.386 -11.184)"/><path d="M168.352,37.281c-.246-4.16-3.043-14.555-3.569-16.86-.692-3.034-5.114-3.529-4.434,1.62.521,3.947,1.09,7.658,1.09,7.658q-.367-1.033-.741-2.067a5.309,5.309,0,0,0-2.189-3.14c-2.495-1.334-3.958,1.162-3.658,3.388.264,1.958,1.3,3.683,1.8,5.577.545,2.076-.077,4.143.178,6.243a12.007,12.007,0,0,0,4.291,7.764c-.01.033.169,9.185.169,9.185a22.6,22.6,0,0,0,4.988-7.8,28.969,28.969,0,0,0,2.079-11.572" transform="translate(-43.602 -5.111)" fill="#fff"/><path d="M161.079,56.966a.524.524,0,0,1-.524-.514c-.121-6.225-.161-8.253-.164-8.949a12.538,12.538,0,0,1-4.292-7.947,15.4,15.4,0,0,1-.007-2.784,10.7,10.7,0,0,0-.157-3.388,19.75,19.75,0,0,0-.778-2.226,14.749,14.749,0,0,1-1.031-3.414,4.121,4.121,0,0,1,1.423-3.911,2.776,2.776,0,0,1,3-.009,4.133,4.133,0,0,1,1.539,1.482c-.149-1.053-.31-2.22-.467-3.4-.388-2.94.8-4.225,2.039-4.448a3.184,3.184,0,0,1,3.426,2.644c.1.457.3,1.244.55,2.238.989,3.961,2.831,11.333,3.031,14.708a29.337,29.337,0,0,1-2.109,11.78,22.912,22.912,0,0,1-5.118,8,.523.523,0,0,1-.362.145m.355-9.687c0,.292.088,4.97.144,7.856a22.025,22.025,0,0,0,4-6.665,28.384,28.384,0,0,0,2.049-11.364c-.194-3.277-2.021-10.588-3-14.516-.25-1-.448-1.792-.555-2.259a2.164,2.164,0,0,0-2.219-1.845c-.976.175-1.43,1.432-1.185,3.28.515,3.9,1.083,7.611,1.088,7.648a.523.523,0,0,1-1.011.255c-.252-.708-.494-1.386-.739-2.065a4.864,4.864,0,0,0-1.943-2.857,1.743,1.743,0,0,0-1.91-.053,3.152,3.152,0,0,0-.983,2.909,13.707,13.707,0,0,0,.968,3.171,20.9,20.9,0,0,1,.816,2.343,11.643,11.643,0,0,1,.189,3.715,14.444,14.444,0,0,0,0,2.6,11.512,11.512,0,0,0,4.107,7.426.523.523,0,0,1,.187.423" transform="translate(-43.396 -4.905)"/><path d="M165.709,39.073a.523.523,0,0,1-.484-.323l-1.877-4.527a.524.524,0,0,1,.968-.4l1.877,4.527a.524.524,0,0,1-.483.724" transform="translate(-45.994 -9.435)"/><path d="M187.464,53.944a9.57,9.57,0,0,1-.991-.041.524.524,0,1,1,.116-1.041,28.665,28.665,0,0,0,3.426-.073.524.524,0,0,1,.078,1.044c-.078.006-1.482.11-2.629.11" transform="translate(-52.388 -14.867)"/><path d="M186.971,56.572a2.126,2.126,0,0,0,3.113-.611,3.652,3.652,0,0,0,.548-2.445l-3.9.071Z" transform="translate(-52.593 -15.073)"/><path d="M185.195,46.34a.524.524,0,0,1-.158-1.023,2.9,2.9,0,0,0,.943-.816.523.523,0,0,1,.821.649,3.773,3.773,0,0,1-1.447,1.165.525.525,0,0,1-.158.024" transform="translate(-52.011 -12.478)"/><path d="M189.472,25.374a4.5,4.5,0,1,1-4.5-4.5,4.5,4.5,0,0,1,4.5,4.5" transform="translate(-50.829 -5.879)"/><path d="M182.959,30.193a5.024,5.024,0,1,1,5.024-5.025,5.03,5.03,0,0,1-5.024,5.025m0-9a3.977,3.977,0,1,0,3.977,3.976,3.981,3.981,0,0,0-3.977-3.976" transform="translate(-50.114 -5.674)"/><path d="M199.518,29.151a4.5,4.5,0,1,1-4.5-4.5,4.5,4.5,0,0,1,4.5,4.5" transform="translate(-53.658 -6.943)"/><path d="M195.736,20.028a4.5,4.5,0,1,1-4.5-4.5,4.5,4.5,0,0,1,4.5,4.5" transform="translate(-52.593 -4.373)"/><path d="M204.979,22.559a4.5,4.5,0,1,1-4.5-4.5,4.5,4.5,0,0,1,4.5,4.5" transform="translate(-55.196 -5.086)"/><path d="M211.244,30.963a4.5,4.5,0,1,1-4.5-4.5,4.5,4.5,0,0,1,4.5,4.5" transform="translate(-56.961 -7.453)"/><path d="M203.293,98.607a.524.524,0,0,1-.371-.153c-.064-.064-6.508-6.372-14.828-3.956-9.146,2.656-19.174-.174-25.055-4.158a.524.524,0,1,1,.588-.867c5.677,3.846,15.353,6.581,24.176,4.019,8.925-2.593,15.792,4.153,15.861,4.221a.524.524,0,0,1-.371.894" transform="translate(-45.854 -25.174)"/><path d="M196,91.4a.523.523,0,0,1-.519-.463L194.012,78.19a.524.524,0,1,1,1.04-.12l1.469,12.747a.523.523,0,0,1-.46.58.442.442,0,0,1-.061,0" transform="translate(-54.641 -21.857)"/><path d="M209.741,242.731h-26.76a.524.524,0,0,1-.523-.545c.06-1.5.469-8.648,2.876-9.5l.367-4.157a.525.525,0,0,1,.522-.478H206.5a.524.524,0,0,1,.522.478l.366,4.139c2.733.767,2.878,8.022,2.878,9.54a.524.524,0,0,1-.524.524m-26.211-1.047h25.682c-.068-3.5-.792-8.035-2.311-8.035a.525.525,0,0,1-.522-.478l-.36-4.073H186.7l-.36,4.073a.524.524,0,0,1-.522.478c-1.168,0-2.071,4.071-2.29,8.035" transform="translate(-51.388 -64.229)"/><path d="M146.069,79.828l-6.859-5.508s-2.559-11.557-6.47-10.117-1.373,6.771-1.373,6.771-4.206-2.565-6.028-3.424-3.774-1.876-5.146-.349a1.983,1.983,0,0,0,.315,3.274s-2.583-.683-3.677.925,1.35,3.235,1.35,3.235-2.123-.32-2.473,1.513,7.827,7.4,7.827,7.4-5.013-.247-6.143-.174a1.788,1.788,0,0,0-1.809,1.761c-.107,1.019.139,2.023,4.411,2.375s8.516,1.175,8.516,1.175l6.758,5.064a8.812,8.812,0,0,0,10.8-13.923" transform="translate(-32.548 -18.047)" fill="#fff"/><path d="M140.354,95.844a9.318,9.318,0,0,1-5.607-1.88l-6.66-4.99c-.711-.134-4.54-.833-8.342-1.145-2.483-.2-3.871-.635-4.5-1.4a1.978,1.978,0,0,1-.386-1.555,2.313,2.313,0,0,1,2.3-2.228c.709-.045,2.836.027,4.4.092-2.647-1.909-6.881-5.253-6.569-6.9A2.265,2.265,0,0,1,116.7,74a3.317,3.317,0,0,1-.835-1.529,2.017,2.017,0,0,1,.333-1.572,3.281,3.281,0,0,1,2.787-1.3,2.4,2.4,0,0,1-.19-.59,2.734,2.734,0,0,1,.807-2.366c1.579-1.756,3.775-.715,5.54.121l.219.1c1.211.573,3.414,1.858,4.81,2.69a6.4,6.4,0,0,1-.021-4,3.6,3.6,0,0,1,2.208-2.052,2.446,2.446,0,0,1,2.093.177c2.914,1.592,4.728,8.858,5.027,10.137l6.717,5.394a9.348,9.348,0,0,1-5.837,16.63M117.8,83.681c-.244,0-.445,0-.583.013a1.272,1.272,0,0,0-1.322,1.294.946.946,0,0,0,.151.776c.419.506,1.692.849,3.782,1.021,4.251.35,8.53,1.175,8.573,1.183a.511.511,0,0,1,.214.1l6.758,5.064a8.288,8.288,0,0,0,10.16-13.1l-6.859-5.508a.526.526,0,0,1-.183-.3c-.5-2.26-2.294-8.395-4.548-9.626a1.418,1.418,0,0,0-1.229-.112,2.561,2.561,0,0,0-1.6,1.462c-.759,1.858.505,4.565.517,4.592a.524.524,0,0,1-.746.672c-.041-.025-4.2-2.56-5.98-3.4l-.221-.1c-1.966-.932-3.329-1.462-4.312-.368a1.753,1.753,0,0,0-.556,1.478,1.451,1.451,0,0,0,.722.98.524.524,0,0,1-.374.972c-.022-.006-2.241-.567-3.11.712a.982.982,0,0,0-.171.782,3.439,3.439,0,0,0,1.379,1.723.524.524,0,0,1-.369.954c-.165-.024-1.636-.195-1.881,1.093-.154.81,3.329,3.957,7.607,6.873a.523.523,0,0,1-.32.955c-.044,0-3.818-.187-5.5-.187" transform="translate(-32.343 -17.842)"/><path d="M132.218,79.437a.527.527,0,0,1-.274-.078l-9.976-6.137a.524.524,0,0,1,.549-.892l9.977,6.137a.524.524,0,0,1-.275.97" transform="translate(-34.281 -20.35)"/><path d="M139.917,75.606a.522.522,0,0,1-.279-.08l-3.2-2.013a.524.524,0,1,1,.557-.886l3.2,2.013a.524.524,0,0,1-.279.967" transform="translate(-38.358 -20.432)"/><path d="M128.338,85.17a.52.52,0,0,1-.285-.085l-9.336-6.079a.523.523,0,0,1,.571-.877l9.336,6.079a.524.524,0,0,1-.286.963" transform="translate(-33.369 -21.98)"/><path d="M127.73,92.019a.52.52,0,0,1-.2-.038l-1.154-.465a.524.524,0,1,1,.392-.971l1.153.465a.524.524,0,0,1-.2,1.009" transform="translate(-35.502 -25.49)"/></svg>