<svg xmlns="http://www.w3.org/2000/svg" width="46.147" height="64.191" viewBox="0 0 46.147 64.191">
  <g id="medal" transform="translate(-71.962)">
    <path id="Path_468" data-name="Path 468" d="M105.3,44.987l2.935-4.763,5.3-1.807.587-5.564,3.985-3.924-1.895-5.266,1.895-5.267-3.985-3.924-.587-5.564-5.3-1.807L105.3,2.34l-5.552.67L95.035,0,90.319,3.01l-5.552-.67L81.832,7.1l-5.3,1.807-.587,5.564L71.962,18.4l1.895,5.267L71.962,28.93l3.985,3.923.587,5.564,5.3,1.807,2.935,4.763,5.552-.67,4.716,3.01,4.716-3.01Zm-26.5-21.323A16.227,16.227,0,1,1,95.035,39.89,16.245,16.245,0,0,1,78.809,23.663Z" fill="#fff"/>
    <path id="Path_469" data-name="Path 469" d="M169.053,89.333A12.463,12.463,0,1,0,181.517,101.8,12.477,12.477,0,0,0,169.053,89.333Z" transform="translate(-74.018 -78.133)" fill="#fff"/>
    <path id="Path_470" data-name="Path 470" d="M96.908,347.8l-6.6.8-3.49-5.663-1.186-.4-5.117,15.993,9.212-.507,7.207,5.76,4.241-13.256Z" transform="translate(-7.477 -299.59)" fill="#fff"/>
    <path id="Path_471" data-name="Path 471" d="M281.058,342.94l-3.49,5.663-6.6-.8-4.263,2.721,4.241,13.256,7.207-5.76,9.212.507-5.117-15.993Z" transform="translate(-170.324 -299.59)" fill="#fff"/>
  </g>
</svg>
