<svg id="home" xmlns="http://www.w3.org/2000/svg" width="17.424" height="16.333" viewBox="0 0 17.424 16.333">
  <path id="Path_125" data-name="Path 125" d="M53.314,201.549H41.587A1.525,1.525,0,0,1,40,200.1v-7.631a.554.554,0,0,1,1.1,0V200.1a.464.464,0,0,0,.483.441H53.314a.464.464,0,0,0,.483-.441v-7.631a.554.554,0,0,1,1.1,0V200.1A1.525,1.525,0,0,1,53.314,201.549Z" transform="translate(-38.739 -185.216)" fill="#151515"/>
  <path id="Path_126" data-name="Path 126" d="M16.879,23.835a.565.565,0,0,1-.385-.148L9.723,17.413a1.512,1.512,0,0,0-2.021,0L.93,23.687a.575.575,0,0,1-.77,0,.479.479,0,0,1,0-.713L6.931,16.7a2.665,2.665,0,0,1,3.561,0l6.772,6.274a.479.479,0,0,1,0,.713.565.565,0,0,1-.385.148Z" transform="translate(0 -16.017)" fill="#151515"/>
  <path id="Path_127" data-name="Path 127" d="M180.54,294.541H176.5a.5.5,0,0,1-.5-.5V289.56a1.578,1.578,0,0,1,1.577-1.577h1.892a1.578,1.578,0,0,1,1.577,1.577v4.477A.5.5,0,0,1,180.54,294.541Zm-3.531-1.009h3.027V289.56a.568.568,0,0,0-.568-.568h-1.892a.568.568,0,0,0-.568.568Z" transform="translate(-169.811 -278.208)" fill="#151515"/>
</svg>
