<svg xmlns="http://www.w3.org/2000/svg" width="23.795" height="23.795" viewBox="0 0 23.795 23.795"><rect width="23.795" height="23.795" rx="3" fill="#0095eb"/><path d="M2.188,9.777H.161V3.25H2.188ZM1.174,2.36A1.179,1.179,0,1,1,2.348,1.175,1.184,1.184,0,0,1,1.174,2.36Zm8.6,7.418H7.752V6.6c0-.757-.015-1.728-1.054-1.728-1.054,0-1.215.823-1.215,1.674V9.777H3.458V3.25H5.4v.89H5.43A2.13,2.13,0,0,1,7.348,3.086c2.051,0,2.428,1.351,2.428,3.105V9.777Z" transform="translate(7.009 5.862)" fill="#fff"/></svg>