<svg xmlns="http://www.w3.org/2000/svg" width="58.401" height="61.664" viewBox="0 0 58.401 61.664">
  <g id="megaphone" transform="translate(-2.776 -0.1)">
    <path id="Path_477" data-name="Path 477" d="M40.783,23.517C34.765,14.664,26.728,9.958,22.519,12.841a4.855,4.855,0,0,0-1.19,1.2c0,.034-9.744,19.754-9.744,19.754l-5.44,3.686A7.684,7.684,0,0,0,4.1,48.153l.245.36a7.7,7.7,0,0,0,10.628,2.04l8.738,12.872a4.96,4.96,0,0,0,6.8,1.306,4.6,4.6,0,0,0,2.04-3.128,4.869,4.869,0,0,0-.755-3.672L24.1,46.576S42.3,45.127,42.367,45.1a4.359,4.359,0,0,0,1.584-.68c2.162-1.469,2.938-4.549,2.19-8.677a33.273,33.273,0,0,0-5.358-12.226ZM6.328,47.174l-.245-.36A5.3,5.3,0,0,1,7.5,39.449l4.7-3.2,6.2,9.132-4.7,3.2a5.3,5.3,0,0,1-7.371-1.408Zm23.514,12.1a2.516,2.516,0,0,1-4.175,2.808L16.956,49.248l3.5-2.38.925-.075Zm-9.193-14.81L13.89,34.506l6.446-13.144a32.723,32.723,0,0,0,5.379,12.383,32.828,32.828,0,0,0,9.52,9.567Zm20.06-1.584C37.458,42.666,32.168,39,27.686,32.4S21.75,19.546,22.75,16.439a2.9,2.9,0,0,1,2.72-2.04c3.223,0,8.711,3.686,13.321,10.479,2.6,3.822,4.488,7.82,5,11.315C44.808,42.876,40.708,42.876,40.708,42.876Z" transform="translate(0 -3.806)" fill="#fff"/>
    <path id="Path_478" data-name="Path 478" d="M43.649,29.254a6.385,6.385,0,0,0-4.841,1,1.195,1.195,0,1,0,1.36,1.965,4.08,4.08,0,0,1,4.583,6.752,1.19,1.19,0,0,0,.68,2.169,1.163,1.163,0,0,0,.68-.2A6.453,6.453,0,0,0,43.7,29.254Z" transform="translate(-11.366 -9.291)" fill="#fff"/>
    <path id="Path_479" data-name="Path 479" d="M60.328,11.435h.116a1.19,1.19,0,0,0,1.183-1.068l.918-8.921A1.19,1.19,0,1,0,60.178,1.2l-.911,8.928a1.19,1.19,0,0,0,1.061,1.306Z" transform="translate(-18.076 0)" fill="#fff"/>
    <path id="Path_480" data-name="Path 480" d="M78.52,13.818a1.2,1.2,0,0,0-1.652-.34l-8.289,5.44a1.19,1.19,0,0,0,.68,2.183,1.21,1.21,0,0,0,.68-.19l8.289-5.44a1.19,1.19,0,0,0,.292-1.652Z" transform="translate(-20.887 -4.219)" fill="#fff"/>
    <path id="Path_481" data-name="Path 481" d="M81.982,34.605,72.34,32.871a1.192,1.192,0,0,0-.422,2.346l9.635,1.734h.211a1.19,1.19,0,0,0,.211-2.366Z" transform="translate(-21.813 -10.481)" fill="#fff"/>
  </g>
</svg>
