<svg xmlns="http://www.w3.org/2000/svg" width="55.664" height="55.664" viewBox="0 0 55.664 55.664">
  <path id="Union_1" data-name="Union 1" d="M-6761.912-3833a1.088,1.088,0,0,1-1.087-1.087v-20.222h-3.914a1.088,1.088,0,0,1-.953-.564,1.09,1.09,0,0,1,.037-1.107l13.047-20.439a1.086,1.086,0,0,1,.916-.5,1.089,1.089,0,0,1,.917.5l13.046,20.439a1.088,1.088,0,0,1,.037,1.107,1.087,1.087,0,0,1-.954.564h-3.913v4.675a1.088,1.088,0,0,1-1.088,1.087,1.087,1.087,0,0,1-1.087-1.087v-5.762a1.088,1.088,0,0,1,1.087-1.087h3.018l-11.062-17.332-11.062,17.332h3.017a1.087,1.087,0,0,1,1.088,1.087v20.222h13.916v-4.675a1.088,1.088,0,0,1,1.087-1.087,1.088,1.088,0,0,1,1.088,1.087v5.762a1.088,1.088,0,0,1-1.088,1.087Zm35.009-13.264a1.088,1.088,0,0,1-1.088-1.087v-12.829h-1.957a1.088,1.088,0,0,1-.952-.563,1.087,1.087,0,0,1,.034-1.106l8.263-13.046a1.087,1.087,0,0,1,.919-.505,1.086,1.086,0,0,1,.918.505l8.263,13.046a1.089,1.089,0,0,1,.034,1.106,1.089,1.089,0,0,1-.953.563h-1.956v12.829a1.088,1.088,0,0,1-1.088,1.087Zm-1.069-16.09h1.069a1.087,1.087,0,0,1,1.087,1.087v12.829h8.263v-12.829a1.087,1.087,0,0,1,1.087-1.087h1.069l-6.287-9.927Zm-15.674-6.306a1.087,1.087,0,0,1-1.087-1.087v-8.045h-1.3a1.086,1.086,0,0,1-.96-.577,1.086,1.086,0,0,1,.059-1.119l5.871-8.7a1.087,1.087,0,0,1,.9-.479,1.088,1.088,0,0,1,.9.479l5.871,8.7a1.086,1.086,0,0,1,.059,1.119,1.086,1.086,0,0,1-.96.577h-1.3v8.045a1.087,1.087,0,0,1-1.087,1.087Zm-.347-11.307h.347a1.087,1.087,0,0,1,1.087,1.087v8.045h4.784v-8.045a1.087,1.087,0,0,1,1.087-1.087h.347l-3.826-5.667Z" transform="translate(6768 3888.665)" fill="#fff"/>
</svg>
